<?xml version="1.0" encoding="UTF-8"?>
<svg id="Layer_1" data-name="Layer 1" xmlns="http://www.w3.org/2000/svg" viewBox="0 0 308.17 248.01">
  <defs>
    <style>
      .cls-1 {
        fill: #10448a;
      }

      .cls-1, .cls-2, .cls-3, .cls-4, .cls-5, .cls-6, .cls-7, .cls-8, .cls-9, .cls-10, .cls-11, .cls-12, .cls-13, .cls-14, .cls-15, .cls-16, .cls-17, .cls-18, .cls-19, .cls-20, .cls-21, .cls-22, .cls-23, .cls-24, .cls-25, .cls-26, .cls-27, .cls-28, .cls-29, .cls-30, .cls-31, .cls-32, .cls-33, .cls-34, .cls-35, .cls-36, .cls-37, .cls-38, .cls-39, .cls-40, .cls-41, .cls-42, .cls-43, .cls-44, .cls-45, .cls-46, .cls-47, .cls-48, .cls-49, .cls-50, .cls-51, .cls-52, .cls-53, .cls-54, .cls-55, .cls-56, .cls-57, .cls-58, .cls-59, .cls-60, .cls-61, .cls-62, .cls-63, .cls-64, .cls-65, .cls-66, .cls-67, .cls-68, .cls-69, .cls-70, .cls-71, .cls-72, .cls-73, .cls-74, .cls-75, .cls-76, .cls-77, .cls-78, .cls-79, .cls-80, .cls-81, .cls-82, .cls-83, .cls-84, .cls-85, .cls-86, .cls-87, .cls-88, .cls-89, .cls-90, .cls-91, .cls-92, .cls-93, .cls-94, .cls-95, .cls-96, .cls-97, .cls-98, .cls-99, .cls-100, .cls-101, .cls-102, .cls-103, .cls-104, .cls-105, .cls-106, .cls-107, .cls-108, .cls-109, .cls-110, .cls-111, .cls-112, .cls-113, .cls-114, .cls-115, .cls-116, .cls-117, .cls-118, .cls-119, .cls-120, .cls-121, .cls-122, .cls-123, .cls-124, .cls-125, .cls-126, .cls-127, .cls-128, .cls-129, .cls-130, .cls-131, .cls-132, .cls-133, .cls-134, .cls-135, .cls-136, .cls-137, .cls-138, .cls-139, .cls-140, .cls-141, .cls-142, .cls-143, .cls-144, .cls-145, .cls-146, .cls-147, .cls-148, .cls-149, .cls-150, .cls-151, .cls-152, .cls-153, .cls-154, .cls-155, .cls-156, .cls-157, .cls-158, .cls-159, .cls-160, .cls-161, .cls-162, .cls-163, .cls-164, .cls-165, .cls-166, .cls-167, .cls-168, .cls-169, .cls-170, .cls-171, .cls-172, .cls-173, .cls-174, .cls-175, .cls-176, .cls-177, .cls-178, .cls-179, .cls-180, .cls-181, .cls-182, .cls-183, .cls-184, .cls-185, .cls-186, .cls-187, .cls-188, .cls-189, .cls-190, .cls-191, .cls-192, .cls-193, .cls-194, .cls-195, .cls-196, .cls-197, .cls-198, .cls-199, .cls-200, .cls-201, .cls-202, .cls-203, .cls-204, .cls-205, .cls-206, .cls-207, .cls-208, .cls-209, .cls-210, .cls-211, .cls-212, .cls-213, .cls-214, .cls-215, .cls-216, .cls-217, .cls-218, .cls-219, .cls-220, .cls-221, .cls-222, .cls-223, .cls-224, .cls-225, .cls-226, .cls-227, .cls-228, .cls-229, .cls-230, .cls-231, .cls-232, .cls-233, .cls-234, .cls-235, .cls-236, .cls-237, .cls-238, .cls-239, .cls-240, .cls-241, .cls-242, .cls-243, .cls-244, .cls-245, .cls-246, .cls-247, .cls-248, .cls-249, .cls-250, .cls-251, .cls-252, .cls-253, .cls-254, .cls-255, .cls-256, .cls-257, .cls-258, .cls-259, .cls-260, .cls-261, .cls-262, .cls-263, .cls-264, .cls-265, .cls-266, .cls-267, .cls-268, .cls-269, .cls-270, .cls-271, .cls-272, .cls-273, .cls-274, .cls-275, .cls-276, .cls-277, .cls-278, .cls-279, .cls-280, .cls-281, .cls-282, .cls-283, .cls-284, .cls-285, .cls-286, .cls-287, .cls-288 {
        stroke-width: 0px;
      }

      .cls-2 {
        fill: #1865ce;
      }

      .cls-3 {
        fill: #06254a;
      }

      .cls-4 {
        fill: #636d6f;
      }

      .cls-5 {
        fill: #030405;
      }

      .cls-6 {
        fill: #1f71e0;
      }

      .cls-7 {
        fill: #ebf0f6;
      }

      .cls-8 {
        fill: #eaeef2;
      }

      .cls-9 {
        fill: #1a72e6;
      }

      .cls-10 {
        fill: #1868d5;
      }

      .cls-11 {
        fill: #1f64d2;
      }

      .cls-12 {
        fill: #134794;
      }

      .cls-13 {
        fill: #0c1427;
      }

      .cls-14 {
        fill: #3c3e3a;
      }

      .cls-15 {
        fill: #1a72e8;
      }

      .cls-16 {
        fill: #2e75db;
      }

      .cls-17 {
        fill: #343434;
      }

      .cls-18 {
        fill: #2c2c2f;
      }

      .cls-19 {
        fill: #08162b;
      }

      .cls-20 {
        fill: #3f3f3e;
      }

      .cls-21 {
        fill: #999ea4;
      }

      .cls-22 {
        fill: #1b60bb;
      }

      .cls-23 {
        fill: #181818;
      }

      .cls-24 {
        fill: #114995;
      }

      .cls-25 {
        fill: #176ad6;
      }

      .cls-26 {
        fill: #0f3f81;
      }

      .cls-27 {
        fill: #1f6bd0;
      }

      .cls-28 {
        fill: #196bd9;
      }

      .cls-29 {
        fill: #2d2e2f;
      }

      .cls-30 {
        fill: #101419;
      }

      .cls-31 {
        fill: #eef1f5;
      }

      .cls-32 {
        fill: #173050;
      }

      .cls-33 {
        fill: #174693;
      }

      .cls-34 {
        fill: #0f4282;
      }

      .cls-35 {
        fill: #1766d0;
      }

      .cls-36 {
        fill: #1872ea;
      }

      .cls-37 {
        fill: #0d2858;
      }

      .cls-38 {
        fill: #131c22;
      }

      .cls-39 {
        fill: #07254b;
      }

      .cls-40 {
        fill: #bcc1c7;
      }

      .cls-41 {
        fill: #0c356a;
      }

      .cls-42 {
        fill: #1a65ce;
      }

      .cls-43 {
        fill: #f7f9fc;
      }

      .cls-44 {
        fill: #1861c5;
      }

      .cls-45 {
        fill: #dfeaf6;
      }

      .cls-46 {
        fill: #0f3e83;
      }

      .cls-47 {
        fill: #1c1d20;
      }

      .cls-48 {
        fill: #1665cb;
      }

      .cls-49 {
        fill: #e8eff7;
      }

      .cls-50 {
        fill: #82858b;
      }

      .cls-51 {
        fill: #175fbf;
      }

      .cls-52 {
        fill: #030507;
      }

      .cls-53 {
        fill: #196ede;
      }

      .cls-54 {
        fill: #0c0f0f;
      }

      .cls-55 {
        fill: #bbc0c5;
      }

      .cls-56 {
        fill: #1458b3;
      }

      .cls-57 {
        fill: #1474ec;
      }

      .cls-58 {
        fill: #1863cb;
      }

      .cls-59 {
        fill: #7e94b1;
      }

      .cls-60 {
        fill: #f0f6fa;
      }

      .cls-61 {
        fill: #08295c;
      }

      .cls-62 {
        fill: #04152a;
      }

      .cls-63 {
        fill: #2974d5;
      }

      .cls-64 {
        fill: #eaeff6;
      }

      .cls-65 {
        fill: #041225;
      }

      .cls-66 {
        fill: #111418;
      }

      .cls-67 {
        fill: #5a91d9;
      }

      .cls-68 {
        fill: #4d4e4d;
      }

      .cls-69 {
        fill: #cdd0d5;
      }

      .cls-70 {
        fill: #1867d8;
      }

      .cls-71 {
        fill: #010102;
      }

      .cls-72 {
        fill: #f4f4f3;
      }

      .cls-73 {
        fill: #1766cf;
      }

      .cls-74 {
        fill: #a5af9e;
      }

      .cls-75 {
        fill: #5a93e6;
      }

      .cls-76 {
        fill: #525d63;
      }

      .cls-77 {
        fill: #0f4284;
      }

      .cls-78 {
        fill: #165fc1;
      }

      .cls-79 {
        fill: #092a55;
      }

      .cls-80 {
        fill: #bcc1c6;
      }

      .cls-81 {
        fill: #186ad7;
      }

      .cls-82 {
        fill: #0b0e11;
      }

      .cls-83 {
        fill: #0b1047;
      }

      .cls-84 {
        fill: #145ab8;
      }

      .cls-85 {
        fill: #5792e3;
      }

      .cls-86 {
        fill: #155fbd;
      }

      .cls-87 {
        fill: #363636;
      }

      .cls-88 {
        fill: #050e1e;
      }

      .cls-89 {
        fill: #1456b1;
      }

      .cls-90 {
        fill: #155eba;
      }

      .cls-91 {
        fill: #071f3f;
      }

      .cls-92 {
        fill: #d6dbe2;
      }

      .cls-93 {
        fill: #081225;
      }

      .cls-94 {
        fill: #175ab3;
      }

      .cls-95 {
        fill: #e7eef7;
      }

      .cls-96 {
        fill: #093065;
      }

      .cls-97 {
        fill: #080b0f;
      }

      .cls-98 {
        fill: #00040f;
      }

      .cls-99 {
        fill: #2067cc;
      }

      .cls-100 {
        fill: #171614;
      }

      .cls-101 {
        fill: #082954;
      }

      .cls-102 {
        fill: #0b3466;
      }

      .cls-103 {
        fill: #101215;
      }

      .cls-104 {
        fill: #1478f3;
      }

      .cls-105 {
        fill: #1556ae;
      }

      .cls-106 {
        fill: #bbc0c6;
      }

      .cls-107 {
        fill: #102b4e;
      }

      .cls-108 {
        fill: #041f3c;
      }

      .cls-109 {
        fill: #568edc;
      }

      .cls-110 {
        fill: #2f2e2f;
      }

      .cls-111 {
        fill: #1352a5;
      }

      .cls-112 {
        fill: #020509;
      }

      .cls-113 {
        fill: #020910;
      }

      .cls-114 {
        fill: #639eeb;
      }

      .cls-115 {
        fill: #05162d;
      }

      .cls-116 {
        fill: #0f2b4f;
      }

      .cls-117 {
        fill: #031c38;
      }

      .cls-118 {
        fill: #080a0e;
      }

      .cls-119 {
        fill: #185ebe;
      }

      .cls-120 {
        fill: #1b67cb;
      }

      .cls-121 {
        fill: #1253a6;
      }

      .cls-122 {
        fill: #3d3c3c;
      }

      .cls-123 {
        fill: #e9eff6;
      }

      .cls-124 {
        fill: #f1f0f8;
      }

      .cls-125 {
        fill: #030308;
      }

      .cls-126 {
        fill: #e8eef6;
      }

      .cls-127 {
        fill: #020204;
      }

      .cls-128 {
        fill: #f5f8fc;
      }

      .cls-129 {
        fill: #1a5ab0;
      }

      .cls-130 {
        fill: #061b39;
      }

      .cls-131 {
        fill: #1d67d3;
      }

      .cls-132 {
        fill: #0b346f;
      }

      .cls-133 {
        fill: #1862c4;
      }

      .cls-134 {
        fill: #363536;
      }

      .cls-135 {
        fill: #0f6fd5;
      }

      .cls-136 {
        fill: #0a1a3c;
      }

      .cls-137 {
        fill: #114b99;
      }

      .cls-138 {
        fill: #040a14;
      }

      .cls-139 {
        fill: #357de1;
      }

      .cls-140 {
        fill: #44494f;
      }

      .cls-141 {
        fill: #1b6bd6;
      }

      .cls-142 {
        fill: #0f3f85;
      }

      .cls-143 {
        fill: #050d19;
      }

      .cls-144 {
        fill: #f6f6f5;
      }

      .cls-145 {
        fill: #1667cf;
      }

      .cls-146 {
        fill: #e8edf3;
      }

      .cls-147 {
        fill: #154593;
      }

      .cls-148 {
        fill: #185cb5;
      }

      .cls-149 {
        fill: #1250a2;
      }

      .cls-150 {
        fill: #0e3671;
      }

      .cls-151 {
        fill: #1d1e1e;
      }

      .cls-152 {
        fill: #0c3467;
      }

      .cls-153 {
        fill: #010202;
      }

      .cls-154 {
        fill: #1a6fdf;
      }

      .cls-155 {
        fill: #0c4487;
      }

      .cls-156 {
        fill: #092240;
      }

      .cls-157 {
        fill: #071524;
      }

      .cls-158 {
        fill: #041c35;
      }

      .cls-159 {
        fill: #13171d;
      }

      .cls-160 {
        fill: #4182d7;
      }

      .cls-161 {
        fill: #020607;
      }

      .cls-162 {
        fill: #101313;
      }

      .cls-163 {
        fill: #0a2548;
      }

      .cls-164 {
        fill: #070707;
      }

      .cls-165 {
        fill: #e4eaf1;
      }

      .cls-166 {
        fill: #2266bf;
      }

      .cls-167 {
        fill: #020305;
      }

      .cls-168 {
        fill: #12488f;
      }

      .cls-169 {
        fill: #6a6a6a;
      }

      .cls-170 {
        fill: #061223;
      }

      .cls-171 {
        fill: #03080e;
      }

      .cls-172 {
        fill: #040508;
      }

      .cls-173 {
        fill: #010101;
      }

      .cls-174 {
        fill: #2c6ec2;
      }

      .cls-175 {
        fill: #1963c9;
      }

      .cls-176 {
        fill: #020d1b;
      }

      .cls-177 {
        fill: #155cb9;
      }

      .cls-178 {
        fill: #141414;
      }

      .cls-179 {
        fill: #dedede;
      }

      .cls-180 {
        fill: #3c4552;
      }

      .cls-181 {
        fill: #186ddc;
      }

      .cls-182 {
        fill: #186cda;
      }

      .cls-183 {
        fill: #2a74d8;
      }

      .cls-184 {
        fill: #2c72cf;
      }

      .cls-185 {
        fill: #0e3975;
      }

      .cls-186 {
        fill: #04172e;
      }

      .cls-187 {
        fill: #75a8e8;
      }

      .cls-188 {
        fill: #9ca2b3;
      }

      .cls-189 {
        fill: #1863c9;
      }

      .cls-190 {
        fill: #0c3569;
      }

      .cls-191 {
        fill: #1874fa;
      }

      .cls-192 {
        fill: #e6eef5;
      }

      .cls-193 {
        fill: #286fd4;
      }

      .cls-194 {
        fill: #156dd6;
      }

      .cls-195 {
        fill: #1b6bd8;
      }

      .cls-196 {
        fill: #0b2f7c;
      }

      .cls-197 {
        fill: #136feb;
      }

      .cls-198 {
        fill: #05070b;
      }

      .cls-199 {
        fill: #4a5859;
      }

      .cls-200 {
        fill: #1456b0;
      }

      .cls-201 {
        fill: #1665cc;
      }

      .cls-202 {
        fill: #676e72;
      }

      .cls-203 {
        fill: #1872e6;
      }

      .cls-204 {
        fill: #112c4e;
      }

      .cls-205 {
        fill: #0b1e2f;
      }

      .cls-206 {
        fill: #e2e9f3;
      }

      .cls-207 {
        fill: #eef1fb;
      }

      .cls-208 {
        fill: #1d71e1;
      }

      .cls-209 {
        fill: #1859b6;
      }

      .cls-210 {
        fill: #092954;
      }

      .cls-211 {
        fill: #112a49;
      }

      .cls-212 {
        fill: #070b0e;
      }

      .cls-213 {
        fill: #1875eb;
      }

      .cls-214 {
        fill: #092449;
      }

      .cls-215 {
        fill: #82aae0;
      }

      .cls-216 {
        fill: #1b5cb4;
      }

      .cls-217 {
        fill: #165bb2;
      }

      .cls-218 {
        fill: #236fee;
      }

      .cls-219 {
        fill: #6896d1;
      }

      .cls-220 {
        fill: #124ea0;
      }

      .cls-221 {
        fill: #6795da;
      }

      .cls-222 {
        fill: #0e1932;
      }

      .cls-223 {
        fill: #e8eff6;
      }

      .cls-224 {
        fill: #464646;
      }

      .cls-225 {
        fill: #eef0f3;
      }

      .cls-226 {
        fill: #e7eef6;
      }

      .cls-227 {
        fill: #030407;
      }

      .cls-228 {
        fill: #175bb2;
      }

      .cls-229 {
        fill: #e8eef4;
      }

      .cls-230 {
        fill: #165bb6;
      }

      .cls-231 {
        fill: #0f4187;
      }

      .cls-232 {
        fill: #0e3e79;
      }

      .cls-233 {
        fill: #121f2d;
      }

      .cls-234 {
        fill: #13509f;
      }

      .cls-235 {
        fill: #347cd8;
      }

      .cls-236 {
        fill: #196ddd;
      }

      .cls-237 {
        fill: #6399dc;
      }

      .cls-238 {
        fill: #196ddb;
      }

      .cls-239 {
        fill: #1767cd;
      }

      .cls-240 {
        fill: #688db2;
      }

      .cls-241 {
        fill: #1766cc;
      }

      .cls-242 {
        fill: #373d3e;
      }

      .cls-243 {
        fill: #1b5eb6;
      }

      .cls-244 {
        fill: #092a54;
      }

      .cls-245 {
        fill: #1352a7;
      }

      .cls-246 {
        fill: #1457ad;
      }

      .cls-247 {
        fill: #020303;
      }

      .cls-248 {
        fill: #0b3164;
      }

      .cls-249 {
        fill: #0e3062;
      }

      .cls-250 {
        fill: #030406;
      }

      .cls-251 {
        fill: #0b356c;
      }

      .cls-252 {
        fill: #09254a;
      }

      .cls-253 {
        fill: #317bda;
      }

      .cls-254 {
        fill: #236dd2;
      }

      .cls-255 {
        fill: #1761c6;
      }

      .cls-256 {
        fill: #040608;
      }

      .cls-257 {
        fill: #eef0f8;
      }

      .cls-258 {
        fill: #f4f6fa;
      }

      .cls-259 {
        fill: #2f4760;
      }

      .cls-260 {
        fill: #092a58;
      }

      .cls-261 {
        fill: #f5f7f9;
      }

      .cls-262 {
        fill: #1d60b2;
      }

      .cls-263 {
        fill: #e7ecf3;
      }

      .cls-264 {
        fill: #656464;
      }

      .cls-265 {
        fill: #1d1e22;
      }

      .cls-266 {
        fill: #1a62c4;
      }

      .cls-267 {
        fill: #2974d8;
      }

      .cls-268 {
        fill: #010002;
      }

      .cls-269 {
        fill: #1660ca;
      }

      .cls-270 {
        fill: #8f9396;
      }

      .cls-271 {
        fill: #5a8bcc;
      }

      .cls-272 {
        fill: #1d74e7;
      }

      .cls-273 {
        fill: #0e3b79;
      }

      .cls-274 {
        fill: #090b0a;
      }

      .cls-275 {
        fill: #1a72e7;
      }

      .cls-276 {
        fill: #090909;
      }

      .cls-277 {
        fill: #1371e3;
      }

      .cls-278 {
        fill: #656565;
      }

      .cls-279 {
        fill: #166fec;
      }

      .cls-280 {
        fill: #1d68cd;
      }

      .cls-281 {
        fill: #020102;
      }

      .cls-282 {
        fill: #9ba4b1;
      }

      .cls-283 {
        fill: #738b8f;
      }

      .cls-284 {
        fill: #1c64c6;
      }

      .cls-285 {
        fill: #11161d;
      }

      .cls-286 {
        fill: #092952;
      }

      .cls-287 {
        fill: #7c8084;
      }

      .cls-288 {
        fill: #051122;
      }
    </style>
  </defs>
  <path class="cls-173" d="M217.06,195.71c-14.8,2.95-29.5,6.69-44.43,8.49-6.74.81-13.98-2.06-20.92-3.55-10.31-2.21-10.63-2.3-11.29-13.1-.29-4.77-2.05-5.55-6.28-5.58-34.95-.24-69.91-.74-104.86-1.04-2.94-.03-4.81-.89-6.65-3.24-7.26-9.25-14.77-18.3-22.62-27.95,5.73-1.62,10.91-3.2,16.16-4.51,2.67-.67,3.32-1.48,2.44-4.42-2.55-8.57-4.91-17.23-4.6-26.36.17-5,1.79-8.88,6.28-11.61,9.69-5.9,19.58-11.29,30.71-14.01,1.47-.56,2.75-.64,1.9,1.49-.46,1.14-1.48,2.05-2.42,2.91-1.46.97-3.14,1.38-4.8,1.81-2.74.51-5.29,1.54-7.75,2.79-2.4,1.08-4.72,2.32-7.09,3.45-1.32.55-2.73.89-3.88,1.82-.33.26-.67.49-1.01.72-1.37.82-1.83,2.31-2.59,3.58-3.13,4.6-4.16,9.61-3.19,15.08.43,2.44.78,4.89,1.27,7.32,1.46,7.22,1.62,7.37,8.92,7.79.99.06,1.98.14,2.95.36,2.81.97,5.81.24,8.66.92,2.56.93,5.24.54,7.87.71.8.04,1.58.16,2.36.35,2.01.74,4.11.58,6.19.58,1.59,0,3.18,0,4.77-.02,2.91-.18,5.72.46,8.55.95,1.29.05,2.58.07,3.87.12,3.21.14,3.48-1.56,2.6-4.03-.19-.75-.29-1.51-.33-2.28-.05-4.36-.14-8.72.05-13.06.04-.52.16-1.03.33-1.51.18-.46.43-.88.73-1.28,1.43-1.3,2-3.03,2.35-4.87.57-1.64,1.24-3.2,2.84-4.13.76-.27,1.51-.24,2.25.05,1.69,1.02,2.67,2.45,2.59,4.49-.64,2.64-1.65,5.18-1.95,7.9-.72,2.76-.97,5.53.02,8.29,2.56,6.63,7.39,11.02,13.72,13.95,1.47.98,3.15.52,4.74.67,2.25.21,3.72,1.12,3.38,3.69-.44,1.59-1.14,3.04-2.2,4.28-2.07.9-.22,1.52.2,2.24,1.05,1.13,1.95,2.37,2.84,3.62.71,1.15,1.49,2.24,2.27,3.34,2.62,3.67,4.15,8.11,7.85,11,6.46,1.12,12.95.31,19.42.51,6.42.2,7.12.8,7.23,7.24.04,2.33.02,4.66.73,6.91.39,1.67-.15,3.5.87,5.06,1.32,1.28,3.1.81,4.65,1.24,5.33.93,10.63,1.98,15.95,2.95,2.44.82,4.9.92,7.37.1.49-.15.99-.24,1.5-.31,5-.84,10.1-1.02,15.04-2.19,2.49-.35,2.17-2.28,2.23-4,.01-1.43.03-2.86.44-4.25.31-.94.77-1.78,1.49-2.47,5.49-1.32,7.72-.56,9.15,4.49,1.1,3.89,3.28,4.49,6.64,4.09,1.98-.24,4.08-.36,4.53,2.42Z"/>
  <path class="cls-173" d="M285.17,111.25c-.39,1.88-.79,3.75-1.18,5.63-2.31,4.1-3.13,8.52-2.86,13.19-.02.66.04,1.34-.09,1.98-1.67,8.26-1.69,8.36,6.54,9.51,6.73.94,13.5,1.61,20.59,2.44-.51,2.96-2.76,4.8-4.25,6.96-4.41,6.43-9.21,12.59-13.6,19.03-1.91,2.8-4.15,3.85-7.48,3.78-7.15-.15-14.3.22-21.44-.02-3.59-.12-6.35.94-9.02,3.18-4.7,3.94-9.82,7.41-14.32,11.56-5.09,4.69-11.03,6.3-17.64,6.49-1.93-1.91-2-3.85.01-4.38,1.37-.36,2.35-.92,3.14-1.99.67-.61,1.46-1.02,2.29-1.37,1.01-.39,2.05-.68,3.06-1.09.39-.18.8-.32,1.21-.47,2.36-.75,4.01-2.5,5.77-4.08.43-.15.86-.17,1.3-.06,1.49,2.06,2.78-1.04,4.23-.17-.35-.49-.88-.89-.86-1.59,1.25-2.93,4.04-4.37,6.16-6.46,3.14-1.64,5.03-3.73,2.63-7.36-.74-2.36-2.25-4.38-2.95-6.76-.24-.63-.44-1.27-.63-1.92-.48-1.79-1.75-3.18-2.45-4.85-.4-1.17-.48-2.37-.37-3.6.32-2.28,1.72-4.12,2.52-6.21,2.11-2.19,2.84-5.63,6.1-6.79,3.68-.77,7.5.24,11.16-.84,1.02-.27,2.06-.38,3.11-.42,2.18-.19,4.45.41,6.53-.7,2.6-1.95,2.85-4.94,3.29-7.77.32-2.07.33-4.19,1.5-6.05.23-.41.51-.8.79-1.18,1.49-2.62,2.05-5.5,2.57-8.43.26-1.44.91-3.16,2.76-2.93,2.1.26,2.5,1.85,1.86,3.73Z"/>
  <path class="cls-5" d="M103.28,77.88c2.6-2.12,5.11-4.19,1.86-7.81-1.06-1.19-.79-2.61.13-4.09,4.28-6.92,8.52-13.87,12.56-20.93,1.07-1.87,2.17-2.2,4.01-1.69,2.07.57,4.18,1.02,6.29,1.44,5.21,1.04,11.39-3.28,10.7-8.48-1.71-12.89,3.84-20.48,15.6-24.62,3.87-1.36,7.27-6.11,10.84-5.22,3.47.87,6.07,5.33,9,8.27,4.7,4.72,5.98,4.62,9.89-.88.77-1.08,1.79-2.06,2.29-3.26C191-.22,198.75-1.2,209.5.88c8.44,1.64,14.37,4.59,18.1,12.2,1.22,2.49,2.92,4.75,4.41,7.12.12,1.55-1.07,1.78-2.14,2.12-.98-.03-1.71-.52-2.28-1.28-.69-1.33-1.32-2.72-2.91-3.25-.38-.22-.72-.5-1.02-.82-.89-1.48-1.28-3.2-2.2-4.67-.59-1.14-1.31-2.17-2.42-2.86-2.13-1.53-4.74-1.1-7.09-1.7-4.78-.82-9.53-1.84-14.36-2.22-.39.2-.77.4-1.13.63-2.07,1.7-3.05,4.23-4.72,6.23-1.85,2.17-3.31,4.61-4.91,6.95-.79,1.11-1.46,2.33-2.47,3.28-.74.64-1.58,1.09-2.54,1.3-1.45.28-2.9.28-4.35.02-1.43-.31-2.56-1.14-3.6-2.12-1.2-1.25-2.43-2.48-4.02-3.26-.77-.44-1.5-.92-2.08-1.6-.99-1.36-1.48-3.13-3.24-3.83-6.18,1.82-11.22,5.69-16.52,9.1-2.93,1.43-3.62,3.85-3.64,6.95-.05,5.25.09,10.63-3.33,15.18-3.74,4.67-8.28,7.01-14.28,4.7-4.25-1.63-6.94.01-8.7,3.86-2.88,3.8-4.78,8.18-7.1,12.3-2.24,3.97-.27,6.8,4.34,6.8,1.18-.34,2.31-.8,3.46-1.24,6.44-1.46,12.76-3.79,19.55-2.55,2.11,2.09-.38,2.37-1.28,3.28-.61.4-1.25.74-1.91,1.03-.87.33-1.78.46-2.7.52-1.76-.02-3.36.64-4.96,1.28-.42.12-.84.17-1.27.19-1.51-.09-2.9.25-4.13,1.18-.34.25-.72.45-1.11.62-1.66.26-3.22,1.12-4.97.97-1.6.11-3.06.66-4.46,1.4-.91.51-1.84.98-2.94.75-.74-.23-1.36-.79-2.18-.83-1.09,0-2.25.28-3.09-.73Z"/>
  <path class="cls-210" d="M213.45,226.87c-2.8,5.97-5.83,11.84-8.29,17.95-1.15,2.86-2.86,3.07-5.34,2.99-3.46-.12-2.29-2.81-2.39-4.41-.38-6.47-.32-12.97-.71-19.44-.14-2.27.6-5.13-2.62-6.36-1.61-.62-.5-1.92-.35-2.99.23-1.67,1.17-2.19,2.71-2.16,2.99.04,5.99.11,8.98-.01,3.3-.13,3.65,2.54,2.14,3.68-6.05,4.58-1.68,10.37-3.14,15.39.46.15.93.31,1.39.46,2.47-5.29,5.23-10.48,7.32-15.92,1.33-3.45,3.55-3.94,6.56-3.56,3.52.44,2.1,3.3,2.21,5.1.25,4.41.08,8.84.08,13.84,4.78-3.72,6.56-9.76,5.44-14.56-.46-1.97-.33-4.53,3.04-4.41,1.99.07,4-.08,5.99.06,1.14.08,3.11-.85,3.17,1.09.05,1.41.09,3.69-2.03,4.08-2.63.48-3.38,2.55-4.27,4.44-3.53,7.51-7.17,14.98-10.28,22.66-1.29,3.18-3.34,3.18-5.85,3.01-3.4-.23-2.04-2.93-2.09-4.58-.18-5.38-.07-10.76-.07-16.15l-1.61-.18Z"/>
  <path class="cls-210" d="M136.71,225.84c1.8-3.71,7.01-4.7,3.45-9.49-.65-.88-.5-3.65,1.9-3.8,3.47-.22,6.97-.07,10.46-.05.71,0,1.42.3,1.3,1.1-.22,1.43-.14,3.4-1.63,3.91-5.14,1.76-7.37,6.51-10.69,10.08-3.78,4.08-1.34,12.68,4.02,14.56,1.68.59,3.13.74,2.84,3.04-.32,2.54-2.01,2.54-3.96,2.62-8.54.32-8.47.33-12.15-8.36-.59-1.4-.19-5.2-3.22-3.19-1.49.98-5.83,2.65-2.62,6.28.87.99.4,1.78.21,2.71-.33,1.59-.84,2.81-2.87,2.54-3.52-.46-7.35,1.11-10.5-.92-.84-.54-.46-3.51,1.71-4.48,5.44-2.42,8.2-7.6,11.87-11.79,2.46-2.82-1.73-11.84-5.68-12.78-1.32-.31-3.36.37-2.77-2.21.41-1.83.95-3.6,3.49-3.16.48.08.99,0,1.49,0q7.86-.11,10.71,7.33c.65,1.69,1.44,3.32,2.64,6.07Z"/>
  <path class="cls-101" d="M184.8,242.58c-3.06-1.32-2.56-3.87-2.78-6.32-.61-6.78-1.39-13.56-1.94-20.35-.2-2.46-1.05-3.61-3.66-3.5-3.49.16-6.99.04-10.49.05-1.24,0-2.36.23-2.63,1.7-.2,1.11-.93,2.96.15,3.21,5.21,1.22,1.41,3.66.69,5.25-2.27,4.98-4.84,9.83-7.36,14.71-.91,1.76-1.68,3.96-3.69,4.52-2.83.79-3.36,2.75-3.73,5.94,3.93,0,7.58,0,11.23-.01,3.88,0,4.15-3.24,2.83-4.99-2.5-3.31-.16-5.62,1.53-6.52,2.24-1.2,5.99-1.68,7.87.38,1.3,1.43,1.57,4.71-1.65,6.25-1.51.73-1.51,2.65-1.13,4.05.38,1.42,1.94.78,2.98.81,3.16.08,6.33.01,9.49.01,1.21-.01,2.53-.05,2.51-1.66-.02-1.19,1.54-2.78-.22-3.53ZM171.44,231.01c-1.09.12-2.5.16-3.29-.42-.85-.61.03-1.77.46-2.62.88-1.73,1.77-3.45,3.32-6.45.35,3.21.55,5,.74,6.8.13,1.15.44,2.5-1.23,2.69Z"/>
  <path class="cls-244" d="M84.48,227.89c.58,5.28-1.33,7.09-6.39,6.75-6.56-.44-7.97,2.05-5.23,7.98,1.33,2.88-.03,5.04-3.31,5.15-2.49.08-4.99.09-7.47-.02-1-.05-2.59.74-2.85-.96-.16-1.07-.02-2.93.6-3.25,4.31-2.23,3.9-6.6,4.92-10.26.97-3.5,1.57-7.11,2.21-10.69.23-1.28.48-2.74.1-3.93-1.93-6.12-1.93-6.21,4.23-6.22,7.31,0,14.63.26,21.93-.07,4.03-.18,4.58,1.32,3.52,4.6-.31.94-.38,1.96-.65,2.91-.5,1.77-.11,4-3.17,4.12-2.81.11-2.81-1.35-2.86-3.34-.03-1.49-1.32-1.76-2.53-1.8-2.16-.06-4.32-.09-6.48-.09-5.19,0-6.82,1.8-6.87,7.03-.02,2.06,1.08,2.08,2.49,2.07,2.64,0,5.27,0,7.82,0Z"/>
  <path class="cls-250" d="M230.08,21.87c.64-.55,1.29-1.11,1.93-1.66,5.78,6.94,5.87,7.17,14.55,3.47,4.02-1.72,5.96-.87,8.1,2.79,7.27,12.49,14.76,24.86,22.46,37.09,2.03,3.23,1.56,5.02-1.12,7.38-4.36,3.84-8.34,8.12-12.57,12.12-1.86,1.76-2.07,3.26.71,3.64,10.59,1.43,14.98,10.11,20.71,17.27,1.92,2.4,1.82,4.79.33,7.29-.26-1.26-.33-3.05-1.99-2.83-1.69.22-1.96,2.42-1.85,3.53.31,3.07-1.15,5.4-2.37,7.89-1.87-2.54-1.15-5.32-.69-8.06.35-2.07,1.34-4.11.21-6.22-1.26-3.44-3.73-5.95-6.38-8.33-2.1-2.98-5.59-3.23-8.6-4.45-3.37-1.36-7.05-2.59-6.45-7.45.91-3.48,3.97-5.26,6.13-7.74,1.33-1.18,2.47-2.55,3.61-3.91.97-.91,2.04-1.7,2.96-2.66,3.31-2.35,3.59-4.85,1.24-8.31-2.21-3.25-4.63-6.38-6.6-9.8-2.21-6.52-6.89-11.57-10.3-17.37q-4.28-7.59-12.34-4.42c-1.67.65-3.25,1.56-5.08,1.76-1.63.06-2.89-.49-3.51-2.11-.53-1.81-1.14-3.59-2.25-5.15-.61-1.18-2.15-2.17-.81-3.76Z"/>
  <path class="cls-210" d="M101.42,247.78c-1.16,0-2.34.13-3.48-.04-1.14-.17-3.04.87-3.24-1.01-.14-1.29-.3-3.49,1.17-4.01,3.29-1.18,3.12-3.95,3.66-6.46.97-4.52,1.88-9.06,2.85-13.58.41-1.89.76-3.32-.8-5.35-1.57-2.05-.83-4.9,2.97-4.86,2.49.02,4.98-.06,7.46.01,1.05.03,2.53-.6,2.97.93.38,1.29.23,3.15-.89,3.66-3.82,1.74-3.46,5.26-4.13,8.39-.8,3.72-1.71,7.41-2.49,11.14-.34,1.61-.82,3.29-.15,4.9,2.27,5.49,1.81,6.28-3.92,6.3-.66,0-1.33,0-1.99,0Z"/>
  <path class="cls-79" d="M242.65,247.78c-1.8-.38-5.02,1.16-6.02-.74-1.19-2.25.91-4.28,3.18-5.81,1.71-1.15,1.14-3.67,1.59-5.58,1.04-4.5,1.99-9.03,2.92-13.56.31-1.53.7-2.79-.69-4.49-2.02-2.48-.41-4.98,2.91-5.13,2.48-.11,4.98-.09,7.46,0,1.03.04,2.62-.63,2.87,1.01.16,1.04-.11,2.85-.78,3.2-3.9,2.04-3.7,5.97-4.58,9.33-.96,3.67-1.62,7.43-2.25,11.18-.24,1.43-.45,3.1.04,4.39,2.05,5.39,1.67,6.15-3.76,6.2-.83,0-1.66,0-2.89,0Z"/>
  <path class="cls-173" d="M224.06,188.84c-.93.8.21,2.73-1.86,3.03-2,.29-2.16.82-1.78,3.11-1.01.76-2.14.98-3.37.73-1.4-1.45-2.87-1.59-4.92-1.15-3.44.74-6.53.15-7.06-4.36-.53-4.51-3.72-5.46-7.59-5.36-.75-3.18.41-5.3,3.51-6.35,1.7.46,2.83,1.72,3.83,3.02,3.59,4.7,8.11,7.11,14.14,6.04.77-.02,1.53,0,2.3.06,1.06.12,2.08.34,2.79,1.24Z"/>
  <path class="cls-118" d="M50.13,92.68c.05-1.23.86-1.9,1.69-2.72,1.32-1.31-.49-.78-.84-1.13,3.49-1.47,6.97-2.95,10.91-2.1,1.02-.43,1.45.15,1.73.99.05.55-.08,1.05-.38,1.52-4.15,1.98-8.12,4.66-13.11,3.45Z"/>
  <path class="cls-274" d="M107.07,76.94c.85.39,1.02,1.13,1.05,1.96,1.2,1.75-.17,2.48-1.29,3.3-.7.35-1.98.24-1.37,1.7-.13.64-.42,1.18-.82,1.68-.49.51-1.08.76-1.79.76-2.02-.33-4.11-.06-6.09-.73-.42-.22-.75-.55-.96-.98-.05-.48.06-.92.29-1.33,1.65-1.97,4.55-2.23,6.02-4.45.27-.17.57-.26.88-.27,1.76.44,3.16-.02,4.09-1.64Z"/>
  <path class="cls-250" d="M281.13,130.07c-2.54-5.15-.73-9.36,2.86-13.19-.66,4.46-1.09,8.97-2.86,13.19Z"/>
  <path class="cls-134" d="M63.34,88.09c-.48-.46-.96-.91-1.45-1.37,2.54-1.42,4.78-4.11,8.17-1.93.18.21.36.42.54.63.31.84.24,1.64-.25,2.4-2.27,1.79-4.61,1.81-7.01.27Z"/>
  <path class="cls-20" d="M77,82.81c.94-.75,1.96-1.19,3.18-.81,1.66.81,3.43.24,5.14.38,1.5-.4,3.03-.54,4.59-.49.53,0,1.06,0,1.59,0,1.6.42,3.95-.98,4.52,1.89l.12.17c-3.29,2.3-7.04.89-10.55,1.34-1.03,0-2.02.31-3.02.49-.96.15-1.92.14-2.86-.16-.42-.17-.81-.41-1.15-.72-.62-.62-1.26-1.24-1.57-2.1Z"/>
  <path class="cls-122" d="M96.03,83.79c-1.44-1.57-3.38-.61-5.05-.98,1.35-2.9,4.32-.43,6.11-1.84,1.89-.18,2.89-2.48,5.01-2.13-.43,3.6-3.84,3.55-6.07,4.95Z"/>
  <path class="cls-14" d="M70.06,84.8c.56-1.48,1.6-2.05,3.15-1.69.59.26,1.19.5,1.69.93.46.55.65,1.14.31,1.83-1.86,1.55-3.38.67-4.84-.66-.11-.13-.21-.27-.3-.42Z"/>
  <path class="cls-23" d="M90.22,82.61c-1.72.04-3.44.08-5.15.12-.28-.21-.36-.41-.25-.59.11-.18.21-.26.31-.26,1.59-.74,3.22-1.25,5.01-.82.58.49.51,1.01.08,1.56Z"/>
  <path class="cls-83" d="M32,230.01h7.63c-2.67,1.21-5.35,1.13-7.63,0Z"/>
  <path class="cls-164" d="M90.22,82.61c-.03-.52-.06-1.04-.08-1.56,2.32-.03,4.63-.06,6.95-.08-1.58,2.12-4.42.07-6.11,1.84-.26-.04-.51-.11-.76-.2Z"/>
  <path class="cls-151" d="M107.07,76.94c-.64,2.34-1.76,3.49-4.09,1.64-.15-.34-.05-.57.3-.7,1.37.13,2.61-.28,3.79-.94Z"/>
  <path class="cls-196" d="M264.7,231.91h4.74c.01.18.03.36.04.54h-4.95c.05-.18.11-.36.16-.54Z"/>
  <path class="cls-178" d="M74.19,83.97c-.33-.29-.66-.57-.98-.86,1.27-.1,2.53-.2,3.8-.3.7.32,1.41.65,2.11.97-1.58,1.58-3.25,1.07-4.92.18Z"/>
  <path class="cls-276" d="M85.13,81.87c-.02.29-.04.57-.06.86-1.66-.06-3.45.82-4.89-.72,1.65-.05,3.3-.09,4.95-.14Z"/>
  <path class="cls-71" d="M88.3,115.27c.02-1.82-1.41-2.91-2.17-4.34.1-1.45.97-2.51,1.83-3.58,1.68-1.65,3.43-3.22,5.56-4.31,3.14-1.17,5.85-3.35,9.27-3.84,13.58-3.11,27.29-4.64,41.21-3.28,1.16.03,2.29.26,3.39.68-1.6-.77-3.32-.69-5.03-.72-11.49-1.5-22.87-3.76-34.56-3.62-21.55.25-42.07,4.85-61.66,13.73-2.56,1.16-5.1,2.38-7.85,3.05-1.1.55-2.2,1.16-3.51.94,1.5.46,2.64-.58,3.94-.99,4.54-1.39,9.01-3.02,13.79-3.37,1.9-.04,3.8.19,5.68-.28.46-.15.92-.26,1.39-.35,1.71-.24,3.41-.4,5.07.29.48.26.75.66.81,1.2-.11.53-.37.95-.79,1.29-7.09,3.38-14.69,5.22-22.17,7.45-5.34,1.01-10.7,1.54-16.11.63-1.49-.56-2.16-1.71-2.32-3.22-.1-3.4,1.89-5.51,4.54-7.17,4.22-2.64,8.5-5.17,13.06-7.17,1.13-.46,2.31-.78,3.42-1.3,2.65-1.2,5.25-2.5,8.12-3.13,2.48-.25,4.81-1.03,7.12-1.93,3.02-1,6.09-1.78,9.21-2.39,7.25-1.06,14.34-3.16,21.75-3.03,7.07-.31,14.31,1.31,21.13-1.82,2.51-.3,4.84.98,7.33.85,1.27.04,2.54.13,3.78.41,3.33.36,6.34,2.33,9.82,1.9.97-.57,1.77-1.49,3.04-1.41.73.16,1.31.57,1.84,1.08,2.7,1.99,5.78.71,8.68,1.01,2.61-.02,5.21.01,7.82-.09,18.26-.12,36.51.08,54.76.07,4.22,1.06,8.78.14,12.83,2.19,1.17,1.79,1.18,3.58.03,5.38-1.52,1.26-3.38,1.32-5.2,1.3-21.86-.17-43.31,3.69-64.86,6.54-8.42,1.11-16.82,2.04-25.3,1.25-1.89-.03-3.61-1.77-5.63-.57-.36.6-.9.9-1.55,1.04-1.04.12-1.98-.17-3.3-.9,2.94,2.57,6.22,4.22,6.92,8.04-1.03,1.64-2.4,1.94-3.34.19-.53-.98-.84-.73-1.46-.49-4.09-.76-7.33-3.53-11.24-4.71-1.45-1.32-2.96-1.02-4.49-.16-.64.2-1.29.29-1.96.29-3.35-.45-5.97.65-7.7,3.62-.28.33-.6.63-.93.91-1.05.72-1.91,1.65-2.79,2.56-.36.24-.77.33-1.2.28Z"/>
  <path class="cls-179" d="M101.4,107.03c.57-.04,1.13-.08,1.7-.12,1.34-.81,2.68-.88,4.03-.01,4.42.67,8.13,2.91,11.77,5.31,12.84,8.86,7.05,28.81-5.71,33.59-4.38,1.64-8.72.5-13.08.05-6.8-2.53-11.4-7.26-14.01-13.98-.87-2.97-.52-5.97-.19-8.97.24-2.71.86-5.31,2.38-7.63.37.03.64-.12.81-.45.81-1.13,1.74-2.14,2.9-2.93l.14-.09c2.57-2.59,5.46-4.56,9.25-4.77Z"/>
  <path class="cls-9" d="M42.23,99.09c-4.43,2.56-8.86,5.13-13.3,7.67-1.95,1.11-3.44,2.56-3.87,4.86-.79,4.05-.38,8.16-.54,12.23.08,1.8.19,3.59,1.76,4.85,3.05.27,6.07-.3,9.11-.16,2.78.22,5.46-.83,8.24-.66,1.56.2,2.89-.7,4.36-.94,1.94,0,3.82-.43,5.7-.81,1.24-.26,2.49-.53,3.73-.81-1.7.33-3.39.7-5.09,1.05-2.27.6-4.71.22-6.89,1.27-3.57.24-7.13.72-10.71.58-3.03-.12-5.85-.76-7.3-3.91-.38-1.53-.22-2.92,1.14-3.95,3.52-1.47,7.24-.86,10.86-.79,11.55.22,21.63-3.08,29.69-11.65.7-.74,1.55-1.25,2.6-1.37.88.13,1.47.64,1.87,1.4-1.48,11.39-10.97,21.91-21.7,24.05-5.87,1.17-11.73,2.42-17.68,3.1-1.41.06-2.83-.14-4.22.05-.31.04-.45.22-.34.55,3.43,1.16,7.19.3,10.48,1.98.27.51.21.97-.19,1.39-2.39.47-4.77.48-7.15-.06-12.85-.58-10.5,1.07-13.09-10.9-1.68-7.78-2.92-15.72,3.41-22.39,1.04-.94,1.68-2.37,3.26-2.65l-.07.06c.74-1.45,2.53-1.26,3.55-2.27,2.46-1.23,4.92-2.45,7.38-3.68,1.57.29,2.84-1.09,4.41-.84.44.16.77.44,1,.85.22.7.07,1.33-.39,1.9Z"/>
  <path class="cls-172" d="M100.12,145.85c8.02.91,15.23-.52,20.5-7.29,6.1-7.83,5.53-16.1-1.72-26.35,1.63-1.13,2.51,2.55,4.25.66,3.11-.08,3.65,2.48,4.28,4.55,1.65,5.46,1.5,11-.08,16.48-.54,1.88-1.39,3.69-1.24,5.72.07,1.05.01,2.09-.38,3.09-2.47,3.52-6.68,3.94-10.14,5.71-.87.33-1.78.51-2.68.73-1.11.24-2,1-3.11,1.26-.72.06-1.36-.06-1.71-.79.23-3.08-1.95-2.73-3.89-2.72-1.45,0-3.24,1.32-4.09-1.04Z"/>
  <path class="cls-9" d="M53.13,94.94c-2.64,1-5.28,1.99-7.92,2.99-1.35.61-2.17-.32-3.07-1.04h0c-.27-2.32,2.28-1.52,3.01-2.73,1.66-.49,3.32-.98,4.97-1.48,4.33-1.2,8.4-3.26,12.92-3.83,2.29-.14,5.2-2.14,6.08,2.01-2.92.71-5.84,1.41-8.77,2.12-2.4.7-5.01.62-7.23,1.96Z"/>
  <path class="cls-181" d="M67.12,153.94c7.61-.27,15.22-.58,22.83-.8,1.4-.04,3.39-.31,3.19,1.97-.16,1.82-1.94,1.52-3.19,1.49-9.6-.24-19.19-.54-28.79-.82,1.25-3,4.22-.4,5.95-1.84Z"/>
  <path class="cls-182" d="M85.11,176.91c7.46-.28,14.92-.6,22.38-.8,1.54-.04,3.87-.43,3.69,2.03-.14,1.98-2.29,1.5-3.68,1.47-8.79-.23-17.57-.53-26.36-.8.34-2.69,2.96-.59,3.97-1.88Z"/>
  <path class="cls-120" d="M146.08,189.88c-.25-1.3-.58-2.59-.72-3.89q-1.03-9.8-11.12-10.04c-4.13-.09-8.27-.03-12.41-.09-1.58-.02-3.47.42-3.89-1.97,1.41-.89,3.09-.79,4.63-1.23,7.93-.26,15.86-.82,23.79.14,2.22,5.07.67,10.48,1.38,15.69.11.83-.65,1.47-1.66,1.4Z"/>
  <path class="cls-145" d="M99.04,164.85c.44.59,1.27,1.01.86,1.97-4.99.86-9.99.71-14.99.11-7.24-.07-14.49-.13-21.73-.2,1.28-2.9,4.21-.38,5.94-1.81,7.21-.07,14.42-.13,21.64-.2,2.77-.5,5.54-.71,8.29.13Z"/>
  <path class="cls-203" d="M177.07,198.78l-.43.15-.45-.04c-2.45.71-4.92.55-7.39.11-5.57-1.05-11.15-2.1-16.72-3.15-.31-.58-.21-1.07.31-1.48,4.28-2.02,8.46-.05,12.66.38,2.13.22,4.25.64,6.36,1.04,1.76.69,3.76.57,5.43,1.59.48.4.56.87.23,1.41Z"/>
  <path class="cls-78" d="M177.07,198.78c0-.31,0-.62,0-.93-.36-.46-.34-.91.05-1.35.61-.46,1.32-.7,2.07-.81,1.87-.22,3.8,0,5.63-.62,1.29-.36,2.65-.47,3.88-1.07,2.25-.75,2.32-3.78,4.64-4.46,1.87.4,1.57,2.14,2.09,3.38.36,1.6-.57,2.73-1.43,3.89-5.64.74-11.2,2.11-16.94,1.97Z"/>
  <path class="cls-235" d="M146.08,189.88c-.06-5.68-.11-11.37-.17-17.05-.4-.88-.4-1.65.57-2.16,2.74,1.55,1.92,4.26,2.01,6.58.22,5.72.48,11.41,2.92,16.74-1.1,2.23-2.88,1.26-4.52.95-1.56-1.48-.66-3.35-.81-5.05Z"/>
  <path class="cls-67" d="M80.07,119.86c-.24.14-.5.25-.77.31-1.04-.46-1.51-1.37-1.86-2.37-.28-4.92,2.01-8.32,6.23-10.61.76-.17,1.5-.1,2.2.27,1.46,1.97-.69,2.41-1.46,3.44-.77,1.3-1.54,2.6-2.31,3.9-.83,1.62-1.09,3.47-2.02,5.06Z"/>
  <path class="cls-73" d="M201.03,178.99c-2.53,1.13-2.16,4.02-3.55,5.85-.22.81-.17,1.79-1.28,2.04-.67.55-1.39.57-2.14.17-.73-4.81,1.72-8.77,3.49-12.91,1.44-1.21,2.14-.09,2.87.92.19,1.31,1.29,2.48.61,3.92Z"/>
  <path class="cls-193" d="M121.28,173.51c-.92,1.87-2.19.65-3.35.37-2.95-3.27-5.04-7.1-7.22-10.88.29-.39.66-.64,1.14-.73,2.99.28,3.73,2.98,5.15,4.89,1.28,1.72,2.48,3.51,3.99,5.04.29.39.38.83.28,1.31Z"/>
  <path class="cls-78" d="M69.12,164.92c-1.56,1.96-4.36-.1-5.94,1.81-4.98,0-9.95-.02-14.93-.02.8-2.98,3.54-.38,4.91-1.71,5.32-.03,10.63-.06,15.95-.08Z"/>
  <path class="cls-25" d="M32.78,139c2.42-.7,5.2.89,7.4-1.18,5.8-.72,11.63-1.77,17.11,1.42-1.05,2.66-3.57,1.11-5.28,1.85-.62-.06-1.23-.12-1.85-.18-2.66-1.4-5.65.15-8.35-.92-3.03-.08-6.12.29-9.02-.99Z"/>
  <path class="cls-149" d="M63.13,176.96c3.02,0,6.05,0,9.07-.01,1.34,1.42,4.23-1.26,4.93,1.85-5.64-.02-11.29-.04-16.93-.05-.22-2.57,2.29-.64,2.94-1.79Z"/>
  <path class="cls-130" d="M50.24,178.71c-4.82.03-9.66.5-14.43-.82,3.04-1.55,6.26-.86,9.4-.98,1.5.96,3.22.11,4.77.59.28.22.41.48.39.76-.02.3-.06.45-.13.45Z"/>
  <path class="cls-114" d="M79.13,135.87c.04.51.09,1.03.13,1.54q.51,5.32-6.84,4.64c-3.13,1.15-6.19-.42-9.29-.24-.31-.54-.22-1,.25-1.39,2.78-1.5,5.82-.92,8.72-.84,2.86.09,4.72-.83,5.61-3.56.43-.44.9-.49,1.41-.16Z"/>
  <path class="cls-70" d="M108.1,149.61c.63-.04,1.26-.08,1.89-.12.65,3.2-.57,6.49.49,9.67-.32.73-.73,1.28-1.65.81-.91-1.04-1.82-2.08-2.73-3.12-.65-.99-.7-2-.1-3.03.7-1.4,1.4-2.81,2.1-4.21Z"/>
  <path class="cls-137" d="M53.16,155.76c-3.98,0-7.97,0-11.95,0-.23-2.56,2.32-.63,2.93-1.81,3.01,0,6.01,0,9.02,0,.57.6.57,1.21,0,1.81Z"/>
  <path class="cls-62" d="M26.19,155.79h-10.42c4.03-2.97,7.36-1.53,10.42-1.88.56.63.56,1.25,0,1.88Z"/>
  <path class="cls-187" d="M78.06,117.87c.98.46,1.01,1.43,1.24,2.3.12.27.07.5-.15.7-1.13,3.54-.19,7.18-.57,10.75-.13,1.23.9,3.15-1.57,3.34-2.38-3.96-.82-8.31-1.25-12.46.09-1.88.34-3.68,2.29-4.63Z"/>
  <path class="cls-232" d="M44.14,153.95c-.98.61-1.96,1.21-2.94,1.81-2.33,0-4.66-.02-6.99-.03-.62-.43-1.63-.64-.95-1.77,3.63,0,7.25-.01,10.88-.02Z"/>
  <path class="cls-34" d="M53.17,165c-1.29,1.56-3.68-.03-4.91,1.71-2.02,0-4.05,0-6.07.01-.62-.58-.62-1.15,0-1.72h10.98Z"/>
  <path class="cls-239" d="M77.13,178.8c-1.19-1.81-3.7-.13-4.93-1.85,4.3-.01,8.61-.03,12.91-.04-.89,1.53-3.09.32-3.97,1.88-1.34,0-2.68,0-4.02.01Z"/>
  <path class="cls-271" d="M77.24,134.82c1.77-2.68.35-5.67.79-8.48.29-1.84-.63-3.93,1.12-5.47,0,5-.01,10-.02,15-.38,0-.76,0-1.14.01-.83.06-1.16-.24-.76-1.06Z"/>
  <path class="cls-91" d="M33.27,153.96c.32.59.64,1.18.95,1.77-2.68.02-5.36.04-8.03.06,0-.63,0-1.25,0-1.88,2.36.02,4.72.03,7.08.05Z"/>
  <path class="cls-184" d="M52.01,141.09c1.39-1.95,3.52-.93,5.3-1.32,1.14-1.05,2.36-.97,3.63-.27.82,2.92-2.01,1.24-2.76,2.19-2.09.17-4.18.26-6.17-.6Z"/>
  <path class="cls-78" d="M84.91,166.94c5-.04,9.99-.07,14.99-.11-4.98,1.94-9.99.8-14.99.11Z"/>
  <path class="cls-238" d="M45.16,94.16c0,2.02-2.39,1.39-3.01,2.73-1.66-.2-3.18,1.97-4.93.29,2.44-1.57,5.11-2.51,7.95-3.02Z"/>
  <path class="cls-19" d="M29.17,166.82h-7c3.34-2.7,6.28-1.71,8.97-1.91.56,1.89-1.52,1.06-1.97,1.91Z"/>
  <path class="cls-132" d="M50.24,178.71c-.05-.29-.09-.57-.11-.86-.35-.23-.46-.43-.32-.62.13-.17.26-.26.4-.26,1.99,0,3.97,0,5.96,0,.57.59.56,1.18,0,1.76-1.97,0-3.95-.01-5.92-.02Z"/>
  <path class="cls-89" d="M53.16,155.76c0-.6,0-1.21,0-1.81,2,0,4,0,5.99,0,.58.62.57,1.23,0,1.84-2-.01-3.99-.03-5.99-.04Z"/>
  <path class="cls-277" d="M194.4,186.86c.6,0,1.2,0,1.81.01l-.26,4.66c-.18.53-.23,1.16-.96,1.27-.52-1-1.04-2.01-1.55-3.01-1.12-1.46-.28-2.27.97-2.94Z"/>
  <path class="cls-237" d="M72.42,142.06c2.83-.74,7.52,1.27,6.84-4.64,1.73,5.44,1.24,5.78-6.84,4.64Z"/>
  <path class="cls-158" d="M29.17,166.82c.66-.64,1.31-1.28,1.97-1.91,1.02,0,2.04,0,3.07.01.63,1.18,3.16-.65,2.94,1.86-2.66.01-5.32.02-7.98.04Z"/>
  <path class="cls-26" d="M56.16,178.73c0-.59,0-1.18,0-1.76,2.32,0,4.65,0,6.97,0-.98.6-1.96,1.19-2.94,1.79-1.35,0-2.69-.01-4.04-.02Z"/>
  <path class="cls-255" d="M59.15,155.8c0-.61,0-1.23,0-1.84,2.66,0,5.31-.01,7.97-.02-1.57,1.95-4.38-.11-5.95,1.84-.68,0-1.35.01-2.03.02Z"/>
  <path class="cls-198" d="M85.92,122.89c.06,2.99.13,5.98.19,8.97-1.67-2.96-1.46-5.95-.19-8.97Z"/>
  <path class="cls-183" d="M108.84,159.97c.41-.3.82-.61,1.23-.91,1.76-.82,1.94.78,2.57,1.68.19.74.15,1.45-.38,2.06-.51.06-1.02.13-1.54.19-.63-1.01-1.26-2.02-1.88-3.03Z"/>
  <path class="cls-198" d="M84.4,110.9c.64-.97,1.29-1.94,1.93-2.92.63-.58,1.24-.6,1.8.1-.05,1.39-.8,2.28-2.01,2.84-.57,0-1.15-.02-1.72-.03Z"/>
  <path class="cls-172" d="M106,153.82c.03,1.01.07,2.02.1,3.03-.61-.77-1.23-1.52-1.81-2.31-.45-.62-1.45-1.46-.53-2.06,1.15-.75,1.38,1.02,2.23,1.34Z"/>
  <path class="cls-78" d="M99.04,164.85c-2.76-.04-5.52-.09-8.29-.13,2.77-.64,5.54-1.25,8.29.13Z"/>
  <path class="cls-189" d="M41.8,139.99c2.8.19,5.76-1.12,8.35.92-2.82.01-5.66.19-8.35-.92Z"/>
  <path class="cls-252" d="M37.15,166.78c-.98-.62-1.96-1.24-2.94-1.86,1.67,0,3.33.02,5,.03.56.47,1.45.77.96,1.8-1,.01-2.01.03-3.01.04Z"/>
  <path class="cls-119" d="M168.8,199c2.46-.04,4.93-.07,7.39-.11-2.45,1.17-4.9,1.62-7.39.11Z"/>
  <path class="cls-198" d="M80.07,119.86c0-1.96.73-3.62,2.02-5.06.12,2-.32,3.78-2.02,5.06Z"/>
  <path class="cls-160" d="M58.17,141.69c1-.6,2-1.19,3-1.79.28-.28.62-.38,1.01-.31.53.28.88.69.96,1.3,0,.31-.01.62-.02.94-1.65-.04-3.31-.09-4.96-.13Z"/>
  <path class="cls-138" d="M194.98,192.81c.32-.42.64-.85.96-1.27.14,2.05.62,4.22-1.93,5.28.32-1.34.65-2.67.97-4.01Z"/>
  <path class="cls-166" d="M146.89,194.93c1.4-.4,3.07.36,4.24-.99.82-.34,1.1-.01.99.8-.01.37-.03.74-.04,1.11-1.8.09-3.6.17-5.19-.92Z"/>
  <path class="cls-152" d="M40.17,166.74c-.32-.6-.64-1.2-.96-1.8.99.02,1.98.04,2.98.06,0,.58,0,1.15,0,1.72-.67,0-1.34.01-2.01.02Z"/>
  <path class="cls-118" d="M26.36,103.07c-.73,1.32-2,1.98-3.26,2.65.28-1.88,1.24-2.91,3.26-2.65Z"/>
  <path class="cls-118" d="M29.83,100.85c-.83,1.31-2.18,1.8-3.55,2.27.4-1.98,1.88-2.28,3.55-2.27Z"/>
  <path class="cls-214" d="M50.2,176.97c-.03.29-.06.58-.08.88-1.65-.26-3.52.64-4.92-.94,1.67.02,3.33.04,5,.06Z"/>
  <path class="cls-241" d="M275.02,150.8c-3.98.28-7.95.61-11.93.8-1.35.06-3.41.68-3.4-1.64,0-2.18,1.88-1.85,3.38-1.75,3.98.26,7.95.52,11.93.78.65.59.64,1.2.03,1.81Z"/>
  <path class="cls-141" d="M278.19,120.22c-1.62,4.23-.98,8.96-2.99,13.15-.5,1.04-.78,1.64-1.92,1.6-1.11.45-2.15.7-2.34-1,2.01-4.42,2.62-9.22,3.82-13.87.51-2,.36-4.41,2.84-5.4,1.65,1.69.86,3.63.59,5.52Z"/>
  <path class="cls-2" d="M269.04,163.84c-2.94.25-5.88.53-8.82.73-1.47.1-3.28.31-3.09-1.96.16-1.85,1.81-1.56,3.08-1.48,4.58.27,9.15.59,13.73.89-.79,2.87-3.64.23-4.9,1.82Z"/>
  <path class="cls-269" d="M221.1,188.61c-.7.01-1.41.03-2.11.04-1.77-.66-3.6-.23-5.4-.33-1.44-.08-2.14-.7-1.97-2.17.46-1.15,1.32-1.68,2.55-1.63,3.05,1.33,6.28.84,9.46.93,1.96.16,4.07-.3,5.61,1.44-.58,1.38-1.76,1.17-2.89,1.08-1.68.76-3.56-.05-5.25.64Z"/>
  <path class="cls-266" d="M278.19,120.22c-.49-1.75.53-3.78-1.03-5.33-1.11-3.5.25-6.81.79-10.18.47-.32.92-.31,1.38.03,1.23.89,1.87,1.51,1.27,3.54-1.08,3.7-1.15,7.69-1.64,11.56-.26.11-.52.23-.77.37Z"/>
  <path class="cls-44" d="M251.04,136.8c-1.67,1.99-2.35,4.71-4.67,6.21-.43.3-.88.35-1.36.1-.86-3.98,1.52-6.34,4.26-8.53.82-.12,1.42.26,1.9.88.24.47.18.92-.13,1.34Z"/>
  <path class="cls-217" d="M250.18,165.63c3.15,5.6,3.06,5.84-3.06,8.28-.15-.15-.29-.3-.44-.45-.48-1.43.48-2.33,1.2-3.32.71-1.04.26-2.36.79-3.45.36-.56.83-.95,1.5-1.06Z"/>
  <path class="cls-90" d="M247.12,173.91c-1.13,2.89-4.3,3.73-6.03,6-.43.29-.89.32-1.37.12-.63-.46-1.04-1.04-.97-1.87,2.11-2.65,3.9-5.91,8.24-4.4l.14.14Z"/>
  <path class="cls-56" d="M236.15,181.9c-1.02,2.9-3.35,4.14-6.11,4.84-.57-.36-1.33-.57-1.25-1.48,1.51-2.21,3.22-4.11,6.2-4.12.47.13.86.39,1.16.77Z"/>
  <path class="cls-195" d="M251.06,135.89c-.34-.34-.67-.68-1.01-1.01.84-.99,1.99-1.23,3.2-1.35,3.8.12,7.62-.41,11.4.38.83.39,1.61.82,1.4,1.96-.92.04-1.84.08-2.77.12-4.08.53-8.15.72-12.22-.1Z"/>
  <path class="cls-167" d="M240.05,179.83c.35.03.69.05,1.04.08.48,1.34,1.83.18,2.61.93-.37,2.49-6.05-.2-3.76,4.53-1.99-.72-2.01-2.32-2.88-3.26.22-1.78,1.52-2.15,2.99-2.28Z"/>
  <path class="cls-243" d="M250.18,165.63c-.37.41-.74.81-1.12,1.22-3.23-.74-2.95-3.54-3.49-5.88.22-1.05.63-1.96,1.7-2.4.79,2.42,2.97,4.28,2.91,7.06Z"/>
  <path class="cls-209" d="M244.82,142.8c.52.07,1.04.14,1.56.21.15,2.35-2.29,3.62-2.42,5.86-.39.31-.81.35-1.26.14-.8-.6-1.24-1.38-1.24-2.39.46-1.85.88-3.74,3.36-3.81Z"/>
  <path class="cls-48" d="M266.05,135.87c-.34-.34-.68-.68-1.02-1.02-.32-.52-.25-.98.2-1.38,1.76-.97,3.53-.99,5.31-.07.17.2.34.41.5.62.75.32,1.49.64,2.24.96-2.22,1.82-4.79.88-7.23.9Z"/>
  <path class="cls-84" d="M251.06,135.89c4.07.03,8.14.07,12.22.1-4.03,1-8.13.99-12.23.81,0-.3,0-.6.02-.91Z"/>
  <path class="cls-168" d="M275.02,150.8c-.01-.6-.02-1.21-.03-1.81,1.35,0,2.71-.02,4.06-.03.47.77,2.47-.12,1.92,1.76-1.98.03-3.97.05-5.95.08Z"/>
  <path class="cls-121" d="M269.04,163.84c1.21-1.76,3.65-.18,4.9-1.82,1.01,0,2.02,0,3.03-.01.33.92-.2,1.36-.94,1.68-2.33.05-4.66.11-6.99.16Z"/>
  <path class="cls-213" d="M240.05,179.83c-1,.76-1.99,1.52-2.99,2.28-.28-.17-.58-.24-.91-.21-.45-.04-.91-.08-1.36-.12.29-2.56,1.81-3.4,4.21-2.97.35.34.7.67,1.04,1.01Z"/>
  <path class="cls-163" d="M281.01,161.96c1.85-.24,3.47.39,5.17,1.36-1.44.93-2.86.39-4.22.43-.56-.47-1.44-.77-.95-1.79Z"/>
  <path class="cls-57" d="M244.04,152.89c2.06.53,2.09,2.46,2.74,3.97-.57.6-1.24.59-1.95.31-1.31-.95-1.84-2.16-1.27-3.75.16-.18.32-.35.48-.53Z"/>
  <path class="cls-200" d="M228.94,185.79c.37.32.73.63,1.1.95-.26.12-.52.18-.81.16-2.16-.09-4.32-.17-6.48-.26,1.73-2.73,3.88-2.37,6.18-.84Z"/>
  <path class="cls-218" d="M245.21,156.86c.52,0,1.05,0,1.57,0,.16.57.32,1.14.49,1.72-.21.83-.2,1.77-1.13,2.24-1.42-1.06-2.31-2.24-.93-3.96Z"/>
  <path class="cls-284" d="M242.58,148.66c.46.07.92.13,1.37.2.03,1.34.06,2.68.08,4.02,0,0,.06-.04.06-.04-2.82-.56-3.47-1.9-1.52-4.18Z"/>
  <path class="cls-156" d="M284.97,148.99c.68-.03,1.36-.05,2.04-.08.56.51,1.63.76.97,1.89-.99,0-1.99,0-2.98-.01-.55-.59-.56-1.19-.03-1.8Z"/>
  <path class="cls-65" d="M287.98,150.81c-.32-.63-.65-1.26-.97-1.9.89.04,2.1-.36,2.46.72.38,1.13-.78,1.03-1.49,1.17Z"/>
  <path class="cls-96" d="M284.97,148.99c0,.6.02,1.2.03,1.8-.67-.02-1.34-.04-2.02-.06-.56-.44-1.47-.71-.94-1.74.98,0,1.96,0,2.93,0Z"/>
  <path class="cls-200" d="M221.1,188.61c1.62-1.31,3.47-.68,5.25-.64-.76.29-1.52.58-2.28.87-.99-.08-1.98-.16-2.97-.24Z"/>
  <path class="cls-251" d="M281.01,161.96c.32.6.64,1.2.95,1.79-.99-.02-1.98-.03-2.97-.04-.53-.57-.53-1.15,0-1.72.67-.01,1.34-.02,2.01-.03Z"/>
  <path class="cls-1" d="M279,161.99c0,.57,0,1.15,0,1.72-.99,0-1.98-.02-2.96-.03.31-.56.63-1.12.94-1.68.67,0,1.35-.01,2.02-.02Z"/>
  <path class="cls-273" d="M282.04,148.99c.31.58.63,1.16.94,1.74-.67,0-1.34,0-2.01,0-.64-.59-1.28-1.18-1.92-1.76,1,0,1.99.02,2.99.03Z"/>
  <path class="cls-281" d="M136.1,70.94c.99-.69,1.98-1.38,2.97-2.07.22-.2.43-.39.65-.59,5.1-.86,10.29.54,15.36-.66.5.08,1.01.15,1.51.2,1.59-.03,3.3-.23,4.77.17,3.13.84,1.78-1.6,2.27-2.7,1.02-2.29,3.96-2.38,5.13-4.48.59-.77,1.41-1.21,2.27-1.6,2.42-.83,4.67-2.06,7.01-3.09,1.22-.22,2.22-1.11,3.5-1.14,2.36-.05,4.52-1.45,6.95-1.04,2.68.01,5.37-.04,8.05.04,1.1.07,2.09.55,2.7.51-1.71-.77-4.03-.53-6.32-.56-2.8.14-5.61-.31-8.38.32-1.49.96-3.37.34-4.89,1.19-.81.46-1.77.54-2.57,1.01-1.24.49-2.37,1.27-3.7,1.55-2.29.16-3.94,1.31-5.11,3.25-1.42,1.62-4.13,1.8-4.8,4.27-.63,1.84-2.03,2.43-3.83,2.35-2.39.1-4.04-1.1-5.25-3.03-.98-.13-1.57.52-2.2,1.07-3.09,3-6.76,3.09-10.59.28-.21-1.27.27-2.37.77-3.48,2.54-5.04,7.33-7.68,11.59-10.89,7.22-4.14,14.67-7.68,23.02-8.91.52-.12,1.04-.18,1.57-.22,12.62-.89,23.61,2.68,32.5,11.91,1.69,1.76,3.76,3.52,2.25,6.46-1.79,1.31-3.55.18-5.26-.17-10.86-2.23-21.14-.82-30.82,4.65-1.39.79-2.72,1.73-4.74,1.55,3.53.96,6.03-.9,8.71-2.16,11.56-5.41,23.28-6.26,35.19-1.18.97.55,1.78,1.27,2.39,2.21,2.32,6.04,5.46,11.91,3.77,18.76-1.42,1.45-2.93.7-4.44.21-3.47-1.29-6.69-3.19-10.29-4.18-4.81-1.91-9.86-3.06-14.76-4.65-1.21-.74-2.6-.99-3.95-1.33-1.51-.51-3.11-.61-4.66-.95-1.06-.08-2.71-1.09-2.08,1.39.59,1.34.94,2.72,1,4.17.03,1.83.11,3.67-.1,5.5-.14.81-.44,1.55-1.03,2.15-3.94-1.25-2.52-5.27-4.04-7.78-2.32-5.35-3.65-6.13-9.75-6-2.15.04-4.2.61-6.31.86-1.06.08-2.09-.03-3.12-.26-2.05-.72-4.27-.47-6.35-1.02-4.43-1.03-8.94-.22-13.4-.55-1.19-.09-2.33-.31-3.16-1.28Z"/>
  <path class="cls-106" d="M139.08,68.86c-7.11.15-14,1.77-20.94,3.08-.95-.36-1.72-.99-2.43-1.7-1.33-1.34-1.57-2.93-.78-4.58,1.88-3.89,4.03-7.63,6.86-10.93,1.67-1.96,3.85-1.97,5.94-1.2,5.64,2.08,9.46-.14,13.71-3.98,4.58-4.14,6.82-8.24,6.53-14.53-.35-7.55,5.56-13.94,12.88-15.45,2.29-.47,3.81.81,4.37,2.46,3.05,9.06,9.5,8.31,16.72,6.34,3.02-.82,5.48-1.94,7.24-4.68,1.52-2.37,3.23-4.63,4.81-6.97,4.61-6.82,7.07-7.55,15.03-4.44,2.1,1.61,1.38,3.45.4,5.3-3.7,7.04-8.19,13.61-12.14,20.5-1.17,2.05-2.96,3.05-5.32,3.03-15.44-3.03-28.73,2.1-41.05,10.86-.39.26-.79.51-1.18.76-1.49.99-2.94,2.05-4.07,3.47-.59.67-1.27,1.25-1.93,1.85-1.81,1.95-3.44,4.06-5.22,6.04-1.43,1.59-.83,2.63.68,3.59.27.44.2.83-.16,1.18h.05Z"/>
  <path class="cls-247" d="M224.34,17.01l.2-.11c1.61.78,2.1,2.39,2.85,3.81,1.19,2.3,3.22,3.99,4.53,6.2,2.01,2.98.74,6.16.58,9.28-.26.78-.82,1.29-1.54,1.65-2.26.74-4.5,1.57-6.95,1.02-3.1-1.22-5.48-3.56-8.09-5.5-3.39-2.51-.72-6.12-1.11-9.21.05-.77.18-1.53.37-2.28.89-3.12,1.17-6.38,2.09-9.49.3-.71.78-1.25,1.46-1.62,2.25-.39,2.45,1.83,3.61,2.84.75,1.09.85,2.55,2,3.41Z"/>
  <path class="cls-63" d="M116.98,52.63c1.4-4.94,4.23-7.15,9.39-4.94,5.61,2.41,9.99.51,13.66-3.88.77.2,1.25.69,1.41,1.48-.81,3.07-3.17,4.75-5.64,6.36-1.43.51-2.91.52-4.4.36-.48-.05-.96-.15-1.43-.26-1.58-.56-3.22-.58-4.87-.54-3.04-.67-4.21,2.4-6.5,3.24-1.06-.14-2.1-.29-1.63-1.81Z"/>
  <path class="cls-267" d="M116.98,52.63c.31.83.95,1.21,1.8,1.28,1.98,3.49-1.48,4.94-2.7,7.24-1.47,1.41-2.44,3.17-3.33,4.98-1.99,2.97.69,4.43,2.05,6.32.07.22.14.43.22.65-3.57.63-8-3.42-6.4-6.2,2.74-4.77,4.65-10.06,8.37-14.26Z"/>
  <path class="cls-104" d="M141.05,44.92c-.34-.37-.68-.74-1.02-1.12,3.93-4.42,2.58-9.95,2.91-15.03.25-3.8,1.07-6.67,4.92-7.99.8-.39,1.59-.48,2.36.09-4.19,5.74-3.79,12.64-4.85,19.18-.4,2.45-.79,5.11-4.32,4.86Z"/>
  <path class="cls-139" d="M219.2,10.91c-.28.2-.55.39-.83.59-7.35-2.04-15.11-1.94-22.39-4.31-.58-.8-.44-1.58.05-2.35l-.08-.05c5.58-.11,10.89,1.86,16.43,2.03,2.67.31,5.61-.38,7.74,2.02.56,1.07-.08,1.62-.92,2.07Z"/>
  <path class="cls-99" d="M150.46,21.05c-.86-.09-1.73-.17-2.59-.26,5.07-3.07,10.14-6.14,15.21-9.2.73-.44,1.47-.78,2.16.09.65,1.77-.87,2.49-1.71,3.55-1.29,1.02-2.83,1.63-4.23,2.46-2.91,1.2-5.08,4.36-8.83,3.35Z"/>
  <path class="cls-30" d="M168.11,16.92c.78,0,1.51.09,1.94.86,1.17,1.34,2.44,2.58,3.68,3.86,1.06,1.42,3.34,2.25,2.29,4.7-2.87,2.39-4.81.89-6.48-1.58-1.21-1.78-2.41-3.57-2.39-5.86.03-.51.17-1,.41-1.45.18-.18.36-.35.55-.53Z"/>
  <path class="cls-54" d="M121.05,75.87c0-.29,0-.58.01-.86,1.65-.88,3.49-.82,5.26-1.13l.48.05c1.51-.72,3.13-.92,4.77-1,.82,0,1.64.02,2.46.13,1.5.54,3.3.48,4.27,2.11-1.38,2.94-4.12,1.73-6.34,2.07-1.45-.01-2.9-.04-4.34.14-1.55.08-3.11-.26-4.65.17-.7.08-1.35-.02-1.94-.44-.27-.42-.25-.83.02-1.24Z"/>
  <path class="cls-253" d="M175.97,25.85c-.96-1.3-1.92-2.59-2.88-3.89.09-.61.44-.99,1.05-1.13.97.77,1.94,1.55,2.91,2.32,1.7.37,3.39.63,5.05-.16.65-.35,1.3-.69,1.95-1.04.8.16,1.31.64,1.54,1.42.06.52-.04,1-.29,1.46-.9,1.07-2.18,1.23-3.45,1.42-1.98.1-4.04,1.34-5.88-.4Z"/>
  <path class="cls-191" d="M196.03,4.84c.06.78.12,1.57.18,2.35.14,3.75-1.23,6.33-5.3,6.8-.46-.74-.37-1.45.12-2.13,1.66-2.34,2.47-5.29,5-7.01Z"/>
  <path class="cls-162" d="M106.11,81.89c.61-1.04,2.17-1.44,2-3,1.02-.33,2.04-.65,3.07-.98,1.1.12,2.14-.58,3.25-.22.6.42.98.95.95,1.72-2.21,2.17-4.73,3.74-7.91,4.02-.74-.26-1.2-.77-1.36-1.54Z"/>
  <path class="cls-201" d="M212.38,6.82c-5.64.6-10.99-1.11-16.43-2.03,5.67-.86,11.01.89,16.43,2.03Z"/>
  <path class="cls-254" d="M191.02,11.85c.02.73.04,1.45.07,2.18,1.1,3.31-1.05,4.82-3.42,6.22-.85-.03-1.31-.51-1.52-1.3,1.27-2.62,2.81-5.04,4.88-7.1Z"/>
  <path class="cls-174" d="M163.12,14.61c-.03-1.51,1.7-1.74,2.11-2.93,1.75,1.31,3.25,2.76,2.88,5.24,0,0-.08-.05-.08-.05-.26.36-.61.56-1.05.62-1.36-.12-2.33-.98-3.34-1.76-.32-.3-.5-.67-.52-1.12Z"/>
  <path class="cls-161" d="M115.14,78.91c-.32-.27-.65-.54-.97-.81.37-1.04,1.37-1.49,2.06-2.24,1.61,1.2,3.22-1.87,4.83,0,.03.32.05.64.05.96-.45,1.65-1.81,2.24-3.22,2.77-1.02.21-1.97.12-2.74-.68Z"/>
  <path class="cls-86" d="M231.01,27.06c-1.28-2.11-3.87-3.32-4.2-6.08.46-.46.97-.52,1.54-.2.58.36,1.16.73,1.74,1.09,0,1.41,1.35,2.01,1.87,3.1-.44.64-.08,1.65-.94,2.09Z"/>
  <path class="cls-199" d="M134.13,73.97c-.66-.07-1.33-.14-1.99-.22-.62-.59-.61-1.19-.02-1.79.95-.06,1.9-.13,2.84-.19,1.25-.4,2.5-.86,3.39.64-.02.87-.48,1.44-1.24,1.79-1.01.19-2.03.4-2.98-.23Z"/>
  <path class="cls-279" d="M186.14,18.95l.95.94c.85,1.89,1.19,3.5-1.83,3.13-.4-.36-.81-.71-1.21-1.07.7-1,1.39-2,2.09-3Z"/>
  <path class="cls-51" d="M174.15,20.84c-.35.38-.7.75-1.05,1.13-1.41-1.1-3.14-1.98-3.04-4.18,2.18-.07,3.28,1.29,4.09,3.05Z"/>
  <path class="cls-111" d="M228.34,20.78c-.51.07-1.02.13-1.54.2-1.48-.96-2.05-2.42-2.26-4.09,2.9-.31,3.38,1.76,3.8,3.89Z"/>
  <path class="cls-242" d="M116.23,75.87c0,1.37-.82,2-2.06,2.24-1,.02-2.08,1.28-2.98-.18,1.38-1.42,3.27-1.6,5.05-2.05Z"/>
  <path class="cls-246" d="M219.2,10.91c.31-.69.61-1.38.92-2.07,1.08.57,1.89,1.34,2.01,2.65.41.88.62,1.74-.13,2.56-.93-1.05-1.86-2.09-2.79-3.14Z"/>
  <path class="cls-140" d="M132.12,71.96c0,.6.01,1.2.02,1.79-1.77.06-3.55.11-5.32.17,1.38-1.69,3.26-2.05,5.3-1.96Z"/>
  <path class="cls-259" d="M138.06,72.94c-.69-1.31-2-.95-3.1-1.16.38-.28.76-.56,1.14-.84,1.04.07,2.07.14,3.11.21.82.52,2.93.07,1.61,2.17-1,.47-1.93.44-2.75-.38Z"/>
  <path class="cls-4" d="M126.33,73.88c-1.52,1.47-3.48.87-5.26,1.12,1.5-1.56,3.18-2.28,5.26-1.12Z"/>
  <path class="cls-272" d="M221.98,14.05c.04-.85.09-1.71.13-2.56,1.33,1.6,2.13,3.41,2.23,5.51-1.59-.34-2.24-1.43-2.36-2.95Z"/>
  <path class="cls-206" d="M117.1,69.98c.86.38.92,1.18,1.04,1.96-1.04.38-2.08.76-3.12,1.15,0,0,.2-.19.2-.19l-.07-.27c-.14-1.46,1.03-1.96,1.94-2.64Z"/>
  <path class="cls-228" d="M182.11,22.99c-1.64,1.35-3.32,1.45-5.05.16,1.68-.05,3.37-.11,5.05-.16Z"/>
  <path class="cls-27" d="M231.01,27.06c.1-.8.14-1.62.94-2.09,1.21,1.43,2.23,2.95,2.11,4.95-.79,3.37.95,2.91,3.01,1.99,1.8-.78,3.56-1.66,5.4-2.32q8.22-2.98,12.53,5.35c-.5.56-1.14.73-1.86.67-1.7-.36-2.42-1.91-3.56-2.94-.99-1.09-2.17-1.13-3.45-.58-4.8,1.49-9.03,5-14.5,4.03-1.24-2.95,1.83-6.19-.62-9.06Z"/>
  <path class="cls-175" d="M265.18,52.65c4.18,3.51,6.28,8.49,8.8,13.07,1.94,3.53-1.92,4.52-3.9,6.2-.91.37-1.26-.2-1.51-.91,2.22-3.78.77-6.98-1.38-10.24-1.4-2.11-3.29-4.14-2.85-7.04.16-.46.44-.81.84-1.08Z"/>
  <path class="cls-16" d="M265.18,52.65c-.09.52-.18,1.04-.27,1.56-1.6-.09-2.47-1.25-3.41-2.32-1.59-3.84-4.14-7.12-6.31-10.62-1.19-1.92-2.86-3.72-2.3-6.3.7-.01,1.4-.02,2.1-.03,3.49,5.85,8.59,10.77,10.18,17.71Z"/>
  <path class="cls-280" d="M257.97,84.92c-.1,6.44,5.66,6.21,9.42,7.69,2.44.96,4.4,1.92,5.8,4.06.46.81-.03,1.24-.65,1.62-.96.28-1.77-.08-2.54-.59-.53-.37-1.04-.8-1.56-1.19-.73-.49-1.53-.84-2.36-1.15-3.29-1.76-7.56-1.74-9.83-5.37-.26-.74-.36-1.5-.35-2.28.27-1.24.11-2.8,2.07-2.78Z"/>
  <path class="cls-58" d="M257.97,84.92c-1.15.83-.86,2.14-1.08,3.28-3.42-2.51-1.73-4.97.06-7.44,1.88-1.62,3.24-3.99,6.04-4.36.78.21,1.39.54,1.07,1.53-1.63,2.68-4.74,4.07-6.09,6.99Z"/>
  <path class="cls-216" d="M271.94,97.94c.42-.42.84-.85,1.25-1.27,2.49,2.36,5.07,4.64,6.13,8.08-.55.07-1.09.14-1.64.22-3.71-.88-5.26-3.51-5.74-7.03Z"/>
  <path class="cls-133" d="M264.06,77.93c-.42-.37-.84-.75-1.27-1.12.12-2.31,1.36-3.39,3.64-3.32.19.14.38.27.57.41.01,2.07-1.28,3.19-2.95,4.04Z"/>
  <path class="cls-86" d="M237.06,31.91c-.91,1.01-1.91,2.15-3.29.95-1.04-.9-.9-2.07.29-2.95.05,2.1,1.41,2.22,3.01,1.99Z"/>
  <path class="cls-197" d="M269.04,70.93c.35.33.7.66,1.05.99-.55,1.39-1.65,1.93-3.07,1.97,0,0,.08.04.08.04-1.05-2.1-.32-3.04,1.94-3Z"/>
  <path class="cls-36" d="M212.05,186.09c1.26,3.69,5.11.38,6.93,2.56-9.1,2.56-13.03-4.46-17.95-9.66.17-1.19-3.07-1.38-.94-3.16,5.59,1.55,8.27,6.48,11.95,10.25Z"/>
  <path class="cls-238" d="M69.13,90.86c-1.32-2.8-3.93-1.7-6.08-2.01.11-.25.2-.51.29-.77,2.29-.21,4.66.11,6.82-.96,2.08-1.72,5.11.03,7.12-1.97,1.75.05,3.48.43,5.24.21,4.75-.68,9.49-.83,14.23.13,1.11,1.33.12,1.66-.93,1.84-1.62.27-3.33-.32-4.91.47-7.43-.18-14.45,2.5-21.77,3.06Z"/>
  <path class="cls-17" d="M115.14,78.91c.94-.04,1.88-.09,2.82-.13,2.25,1.78-.93,5.33,2.22,6.82.26.42.24.82-.04,1.22-2.45.57-4.58-1.15-6.98-.96-2.83-1.54-6.33,2.11-8.94-1.14.3-.27.61-.54.91-.81.47-.71,1.16-1,1.99-1.02,2.67-1.33,5.35-2.65,8.02-3.98Z"/>
  <path class="cls-212" d="M104.22,84.72c2.94.67,6.16-.78,8.94,1.14-7.19,3.33-14.8,1.73-22.26,1.94,1.77-1.61,4.67.42,6.22-1.91,1.98-.77,3.97-.75,5.96-.02l1.14-1.15Z"/>
  <path class="cls-117" d="M103.08,85.88c-1.99,0-3.97.01-5.96.02-5.01-.04-10.01-.09-15.02-.13-.31-.16-.41-.32-.32-.49.1-.17.2-.26.3-.26.72-.32,1.44-.64,2.17-.97,3.92.99,7.97-.28,11.89.73,2.28.58,4.86-.77,6.94,1.1Z"/>
  <path class="cls-82" d="M96.14,84.78c-3.96-.3-8.02.97-11.89-.73,3.97-.03,7.93-.06,11.9-.09-.02.27-.02.54-.01.82Z"/>
  <path class="cls-82" d="M107.12,82.9c-.45.76-1.16,1.01-1.99,1.02-.39-.5-1.21-1.16-1.09-1.49.33-.93,1.35-.39,2.07-.53.33.33.67.67,1,1Z"/>
  <path class="cls-222" d="M77.34,86.05c-2.29,1.05-4.77.84-7.18,1.07.06-.64.13-1.28.19-1.91,1.6-.6,3.3,1.76,4.86-.16.2-.44.54-.56.99-.43.63.28,1.03.74,1.14,1.42Z"/>
  <path class="cls-176" d="M77.34,86.05c-.38-.32-.76-.63-1.14-.95.84-1.11,1.86-.71,2.88-.34,1,.08,2,.17,3,.25.02.25.02.5.01.75-1.59.09-3.17.19-4.76.29Z"/>
  <path class="cls-68" d="M79.09,84.76c-.96.11-1.92.23-2.88.34,0,0-.49-.07-.49-.07,0,0-.5.01-.5.01-.34-.36-.69-.72-1.03-1.08,1.64-.06,3.28-.12,4.92-.18,0,.32,0,.65-.02.97Z"/>
  <path class="cls-15" d="M125.19,103.76c16.26,1.24,32.1-2.26,48.06-4.31,16.16-2.08,32.32-4.08,48.68-3.31,2.69,4.07.02,7.63-1.06,11.34-.7,1.11-1.76,1.69-3.01,1.96-1.27.13-2.52-.52-3.81-.1-.44.04-.86-.02-1.28-.17-.98-.57-1.74-1.31-2.02-2.45.2-1.6,1.56-2.2,2.6-3.03-.67-.3-1.07.4-1.65.41-16.25,3.51-31.81,9.53-48.03,13.06-10.28,2.24-20.59,3.85-30.85-.17-2.9-1.4-4.43-4.09-6.19-6.56-.91-2.21-3.36-3.46-3.81-5.98.51-1.18,1.36-1.2,2.37-.71Z"/>
  <path class="cls-275" d="M73.22,107.91c-.36-.35-.73-.69-1.09-1.04-2.1-2.53-5.19-.07-7.51-1.5-1.86.16-3.77-.41-5.58.39l.05-.04c-1.81,1.53-4.19-.15-6.05,1.09-5.09.28-9.82,2.23-14.77,3.21-1.07.24-1.41-.23-1.19-1.23,33.64-17.53,68.93-22.34,105.97-13.77.53.74,2.59-.22,1.99,1.79-14.42-.1-28.79.49-42.9,3.85-1.43-.62-2.8-.19-4.17.23-1.63.36-3.33.25-4.91.84-1.64.4-3.35.45-4.96,1-5.54.04-9.93,3.39-14.87,5.17Z"/>
  <path class="cls-126" d="M219.66,107.81c1.28-3.79,2.4-7.61,2.27-11.68.29-1.9.73-3.8-.13-5.67-.58-1.22-.69-2.52-.64-3.84.09-.68.41-1.25.92-1.7.49-6.73-2.63-12.66-4.22-18.93.84-1.27,2.11-1.91,3.5-2.37,3.5,1.64,3.04,5.49,4.61,8.22.21.49.36.99.47,1.51,4.96,20.64,1.17,39.46-11.7,56.4-.81,1.06-1.63,2.1-2.96,2.56-1.86.27-2.94-.85-3.91-2.18.49-4.26,3.98-6.94,5.66-10.62,1.81-3.98,2.95-8.39,6.12-11.68Z"/>
  <path class="cls-154" d="M189.14,73.82c1.37.17,2.84-.01,3.97,1.04-.4,1.33-1.32,2.22-2.49,2.9-2.54,1-3.53,2.84-2.82,5.47.71,2.61,2.98,2.19,4.86,2.24,5.74.13,11.48-.07,17.21.11,1.35.36,2.85.25,4.12,1.14-.63-.87-1.83-.56-2.51-1.25-.56-.58-.84-1.19-.24-1.91.98-.61,2-.61,3.06-.25,1.12.76,2.85.56,3.39,2.2.33,3.18-1.44,4.43-4.21,3.8-8.35-1.88-16.75-.35-23.98-.92-1.8.25-1.1,1.25-1.32.62-.06-.16.04-.27.3-.29,6.76-.63,13.53-.17,20.3-.24.92,0,1.57.41,1.31,1.52-18.57-.02-37.14-.04-55.71-.06-2.71-1.11-5.56-.29-8.33-.55-2.49-.78-5.76,1.74-7.6-1.8.07-2.42,1.86-3.39,3.66-4.35,1.36-.46,2.68-.47,3.94.32,1.18,2.08,3.17,2.01,5.19,2,6.27-.04,12.55-.26,18.8.07,4.24.23,6.61-.92,6.5-5.47.6-1.03,1.53-1.46,2.68-1.48,2.03,2.31.54,5.82,2.75,8.07,3.56-.68,1.67-3.36,1.54-5-.34-4.4.82-7.36,5.63-7.91Z"/>
  <path class="cls-256" d="M65.14,104.91c1.73-.23,3.45-.5,5.19-.67,2.13-.21,2.45.9,1.8,2.63-11.42,13.7-26.74,15.27-43.02,13.8-2.23.97-2.44,4.74-5.78,4.16-.67-4.57-.68-9.05,1.73-13.21.17,1.18-.11,2.52,1.18,3.29,1.29,1.25,3.02.75,4.53,1.12,1.61.5,3.26.58,4.93.54,10.21.89,19.72-.88,27.96-7.41.55-.35,1.16-.62,1.7-1,.7-.5,1.17-1.3,2.03-1.58-.82,0-1.65,0-2.26-.7h.01c-.33-.21-.44-.42-.33-.64.11-.22.22-.33.33-.33Z"/>
  <path class="cls-286" d="M125.11,139.89c-1.53-2.61.75-4.58,1.17-6.86,1.28-7.1,2.48-14.15-3.12-20.16-2.39-3.56-5.67-6.17-9.46-8.48,2.49-1.22,4.38.18,6.38.55,3.53.58,5.17,3.52,7.31,5.84.88,1.37,1.55,2.87,2.57,4.16.91,1.77,1.57,3.64,2.12,5.55,1.24,6.68-.51,12.69-4.12,18.29-.76.85-1.58,1.53-2.84,1.12Z"/>
  <path class="cls-8" d="M64.81,109.73c-8.68,7.07-18.56,9.75-29.63,8.07-.63-.7-.57-1.42-.05-2.14,2.85-.3,5.65-.85,8.33-1.88,7.2-2.3,14.39-4.6,21.59-6.91,2.41,1.17.48,1.96-.24,2.86Z"/>
  <path class="cls-87" d="M127.01,76.59c1.21-1.1,2.67-.6,4.05-.63,1.28.96,2.91.02,4.22.78,1.2,2.33-.04,4.44-.66,6.57-.55,1.88-1.35,3.69-.44,5.67-3.78,1.55-6.69-1.76-10.19-1.8.08-.21.16-.43.23-.65,2.21-2.49,4.34-5.02,3.22-8.74-.25-.37-.39-.77-.44-1.2Z"/>
  <path class="cls-208" d="M210.09,89.98c-3.33-2.31-7.05-.78-10.58-1.02-4.09-.28-8.21-.07-12.31-.73,8.49,0,16.98-.11,25.47.07,2.61.05,4.76.28,4.39-3.29.24-.4.6-.6,1.07-.58,1.48.45,2.9.99,3.86,2.31.19,1.26,1.27,2.56-.18,3.73-3.93.24-7.83.18-11.72-.48Z"/>
  <path class="cls-169" d="M134.18,88.98c-3.01-.39-2.09-2.31-1.55-4.04.84-2.66,1.72-5.3,2.59-7.95,1.44-.9,2.98-.85,4.55-.47,1.71,1.63.67,3.37.22,5.09-1.02,1.95-1.55,4.28-3.93,5.22-.63.71-1.25,1.43-1.88,2.14Z"/>
  <path class="cls-18" d="M136.06,86.83l2.86-5.01c1.62-1.19,2.68-3.2,5.01-3.34.96.14,1.78.54,2.38,1.33.31,3.02-2.68,2.74-4.06,4.08-1.04.82-2.09,1.64-3.13,2.46-.43.86-.55,2.14-2.06,1.46-.33-.33-.67-.65-1-.98Z"/>
  <path class="cls-109" d="M88.13,108.08c-.6-.03-1.2-.07-1.8-.1-.75-.05-1.5-.1-2.25-.15.59-3.89,3.86-4.51,6.78-5.58.78.03,1.43.33,1.94.92.1.23.2.45.29.68-.97,2.21-3.33,2.8-4.97,4.22Z"/>
  <path class="cls-224" d="M120.14,86.82c-.03-.26-.06-.53-.09-.79,2.25-2.66,3.83-5.54,2.98-9.21,1.25-1.5,2.64-.49,3.99-.23,0,0,.12.38.12.38,1.14,3.91-.65,6.93-2.97,9.79,0,0-.17.41-.17.41-1.29-.12-2.57-.24-3.85-.36Z"/>
  <path class="cls-33" d="M43.47,113.78c-2.43,1.83-5.32,1.94-8.17,2.22-1.47,1.33-3.35.45-4.98.92-1.68-.03-3.32-.13-4.08-2.01,5.82.76,11.5-.55,17.23-1.13Z"/>
  <path class="cls-288" d="M127.03,111.02c-2.32-2.03-4.64-4.05-6.96-6.08.33-.3.66-.6.98-.9,1.14-.88,1.55.17,2.12.79,1.46,1.47,3.36,2.54,4.08,4.66.38.58.31,1.08-.22,1.53Z"/>
  <path class="cls-198" d="M101.4,107.03c-3.08,1.59-6.17,3.18-9.25,4.77,1.38-4.9,4.7-6.02,9.25-4.77Z"/>
  <path class="cls-75" d="M98.32,99.92c1.29.13,2.73-.42,3.82.75-3.39-.02-5.48,3.65-9.03,3.19,0,0,.04.02.04.02-1.14-1.51-.12-2.18,1.08-2.79,1.36-.43,2.82-.49,4.1-1.17Z"/>
  <path class="cls-215" d="M137.06,87.82c.69-.49,1.38-.97,2.06-1.46.8,4.79,4.74,1.43,6.9,2.66.36.15.51.34.45.58-.07.26-.15.39-.25.39-2.42.08-4.85.17-7.27.25-1.71.05-2.38-.73-1.9-2.41Z"/>
  <path class="cls-238" d="M53.13,94.94c1.93-2.42,4.6-2.11,7.23-1.96-2.27,1.18-4.63,2.02-7.23,1.96Z"/>
  <path class="cls-85" d="M146.23,89.98c-.09-.32-.16-.64-.2-.97,2.8.13,5.74-1.01,8.35.91-2.71.58-5.43.42-8.15.06Z"/>
  <path class="cls-157" d="M64.81,109.73c-.37-.99,2.52-1.7.24-2.86.04-.33.07-.66.07-.99.83.18,2.25-.48,2.27.9.02,1.5-.9,2.69-2.58,2.96Z"/>
  <path class="cls-12" d="M37.07,108.8c.4.41.79.82,1.19,1.23-1.38,1.25-2.91,1.15-4.62.52.95-1.12,2.12-1.57,3.43-1.75Z"/>
  <path class="cls-155" d="M145.03,96.82c-.66-.6-1.33-1.19-1.99-1.79,2.05-.4,3.68.63,5.64,1.4-1.39.87-2.52.66-3.65.38Z"/>
  <path class="cls-157" d="M53.03,106.82c1.86-1.24,3.97-1.11,6.05-1.09-1.71,2.05-4,.91-6.05,1.09Z"/>
  <path class="cls-157" d="M65.14,104.91c0,.33,0,.66,0,.98-2.04-.04-4.07-.08-6.11-.12,1.9-1.25,4.02-.91,6.11-.86Z"/>
  <path class="cls-142" d="M123.17,104.84c-.71-.26-1.41-.53-2.12-.79,1.23-2.28,2.7-.96,4.14-.29-.67.36-1.35.72-2.02,1.08Z"/>
  <path class="cls-198" d="M92.01,111.89c-.77,1.17-1.36,2.52-2.9,2.93.12-1.81,1.03-2.85,2.9-2.93Z"/>
  <path class="cls-238" d="M42.15,96.89c1.02.35,2.05.69,3.07,1.04-.75,1.01-1.87,1.09-2.99,1.16-.03-.73-.05-1.47-.08-2.2Z"/>
  <path class="cls-198" d="M107.13,106.9c-1.34,0-2.69,0-4.03.01,1.34-1.44,2.68-2.6,4.03-.01Z"/>
  <path class="cls-211" d="M94.05,116.59c.39-.57.79-1.14,1.18-1.71,1.07-1.11,2.99-.8,3.81-2.31.85-1.14,2.14-1.96,3.31-1.22,1.05.67.1,2.1-.03,3.18-.84,7.13-3.27,8.64-9.89,6.23-1.98-.72-1.38-1.76-.38-2.86,1.05.15,1.56-.52,1.99-1.31Z"/>
  <path class="cls-204" d="M106.11,134.13c.42.23.95.36,1.23.7,1.63,1.94,5.7,4.03,4.68,5.49-1.71,2.44-5.55,2.91-8.89,1.65-2.49-.9-2.74-2.42-1.21-4.42l-.14.12c1.81-.73,2.75-2.52,4.33-3.53Z"/>
  <path class="cls-116" d="M110.07,111.88c4.32.7,6.89,3.56,9.32,7.6-2.63.69-4.88,1.45-7.35,1.26-2.9-2.45-3.73-5.37-1.97-8.86Z"/>
  <path class="cls-107" d="M92.11,125.87c7.59,2.17,7.82,2.99,3.06,11.02-3.23-3.06-5.42-6.41-3.06-11.02Z"/>
  <path class="cls-32" d="M120.15,123.96c2.11,4.14.67,7.68-1.86,11.03-3.53-1.19-4.86-3.51-3.68-7.13,1.95-1.15,3.97-2.21,5.54-3.9Z"/>
  <path class="cls-66" d="M110.07,111.88c.09,3.08.88,6,1.97,8.86-1.68.43-3.54.71-3.8-1.58-.3-2.66-2.06-5.29-.72-7.95.37-.74,1.78,0,2.55.68Z"/>
  <path class="cls-47" d="M92.11,125.87c-.6,4.12,1.72,7.44,3.06,11.02q-1.97.24-3.16-1.35c-1.16-1.55-2.14-3.15-1.98-5.2-.04-1.86-1.75-4,.9-5.42.4.32.79.64,1.19.96Z"/>
  <path class="cls-103" d="M115.17,127.92c-.74,3.14,1.57,4.94,3.11,7.07-1.24,2.59-2.81,3.46-3.69,0-.69-2.71-6.11-6.02.44-8.42.44.41.49.86.14,1.35Z"/>
  <path class="cls-180" d="M102.91,125.66c.98-1.33,1.89-2.91,3.75-1.04,1.03,1.03,1.5,2.21.47,3.43-1.33,1.56-2.75,1.45-4.05-.14-.56-.71-.57-1.47-.17-2.25Z"/>
  <path class="cls-285" d="M101.93,137.54c-.1,1.61-.35,3.26,1.21,4.42-1.69-.12-4.15.84-4.55-1.52-.24-1.38,1.37-2.89,3.34-2.9Z"/>
  <path class="cls-233" d="M115.17,127.92c-.05-.45-.09-.9-.14-1.35,1.98-.33,2.67-3.19,5.11-2.61-.4,2.9-2.74,3.37-4.97,3.96Z"/>
  <path class="cls-159" d="M106.11,134.13c-.57,2.25-1.73,3.77-4.33,3.53.64-2.16,1.54-4.01,4.33-3.53Z"/>
  <path class="cls-265" d="M90.92,124.91c-1.4,1.62-.53,3.62-.9,5.42-.56-2.05-1.9-4.14.34-6.02.05-.04.28.06.36.16.1.12.13.29.19.44Z"/>
  <path class="cls-287" d="M102.91,125.66c.06.75.11,1.5.17,2.25-1.12-.44-3.13.9-3.33-.51-.27-1.89,1.74-1.75,3.17-1.74Z"/>
  <path class="cls-98" d="M99.04,112.57c-.49,2.06-2.03,2.39-3.81,2.31.42-2.17,2.2-2.1,3.81-2.31Z"/>
  <path class="cls-268" d="M94.05,116.59c-.07,1.06.52,2.4-1.05,2.8-.17.04-.62-.97-.93-1.49.08-1.32,1.17-1.1,1.99-1.31Z"/>
  <path class="cls-77" d="M91.03,102.71c-2.46,1.52-5.07,2.81-6.95,5.12-3.58,2.4-5.61,5.74-6.03,10.04-.35,1.3-.7,2.6-1.04,3.89-.73,4.92-.59,9.85-.06,14.76.3,2.78-.65,4.05-3.53,3.83-3.76-.28-7.57.47-11.31-.45l-.46-.04s-.47.02-.47.02c-1.29-.04-2.58-.09-3.88-.13-5.56-1.98-11.56-.05-17.12-1.95,0,0,0,.02,0,.02-3.49-.74-7.11-.56-10.58-1.48-.84-.22-1.62-.29-1.37-1.45l-.06.02c1.49-1.26,3.52.17,5.02-1.03,7.99-1.4,16-2.66,23.95-4.27,2.75-.56,5.23-2.02,6.7-4.76,3.06-5.68,6.24-11.3,9.37-16.95,4.03-4.3,9.07-6.1,14.86-6.06,1.15-.28,2.55-1.43,2.95.86Z"/>
  <path class="cls-256" d="M35.19,129.69c-3.39.22-6.79.45-10.18.67-.21-.78-.5-2.17.02-2.25,2.82-.39,2.03-.96.3-1.99-.75-.45-.84-1.47-.2-2.12.9-.92,2.01-.84,3.06-.13,2.33,3.47,5.93,2.77,9.3,2.81,2.79.03,5.57.05,8.36.08,1.17-.41,2.3-.73,2.32,1.16-1.34.3-2.57,1.24-4.06.78-3.14-1.18-5.9,1.03-8.91.99Z"/>
  <path class="cls-112" d="M28.18,123.87c-.79.16-2.09.1-2.27.52-.91,2.11,2.15,1.52,2.29,3.14-1.41.51-3.31.56-3.2,2.82-1.34-1.6-1.58-3.54-1.68-5.52,1.97-1.33,3.13-3.78,5.78-4.16-1.77.65-.73,2.1-.92,3.2Z"/>
  <path class="cls-25" d="M28.23,134.9c3.62,2.45,8.22.93,11.95,2.93-3.95.49-7.79-.43-11.63-1.06-1.16-.19-3.03-.77-.32-1.87Z"/>
  <path class="cls-113" d="M48.16,127.92c-.5-.94-1.42-1.02-2.32-1.16,2.25-1.28,4.77-.81,7.18-1.08,1.02-.25,1.33.17,1.06,1.12-1.97.37-3.95.74-5.92,1.12Z"/>
  <path class="cls-112" d="M35.19,129.69c2.93-.68,5.68-3.03,8.91-.99-2.97.37-5.87,1.35-8.91.99Z"/>
  <path class="cls-102" d="M54.08,126.8c-.35-.37-.71-.75-1.06-1.12,1.6-1.19,3.36-.9,5.58-.57-1.54,1.22-2.91,1.76-4.52,1.7Z"/>
  <path class="cls-25" d="M33.19,133.89c-1.44,1.47-3.32.83-5.02,1.03,1.39-1.75,3.32-.82,5.02-1.03Z"/>
  <path class="cls-153" d="M125.11,139.89c.63-.4,1.26-.8,1.89-1.2,3.81,1.98,7.63,2.11,11.47.07,6.29-.18,12.49-1.66,18.81-1.32,1.62-.17,3.22-.54,4.86-.36,2.81.67,5.67.39,8.51.45,2.31.06,4.63,0,7.39.16-2.3-1.63-3.08-3.27.18-3.82,3.42-.57,6.83-1.28,10.32-1.4,2.8-.09,4.86-1.18,4.35-4.57.34-3.95,1.94-7.32,4.62-10.21.62-.38,1.3-.5,2.01-.37.98.48,1.98,1.37,2.91-.11,1.06-1.42,2.03-2.9,3.28-4.16,1.96-1.5,3.16-4.46,6.47-3.37,1.09,1.73-.07,3.07-.82,4.44-1.32,2.41-2.56,4.84-2.66,7.67-.04.44-.15.87-.31,1.28-1.1,1.44-1.23,3.11-1.09,4.84-.26,1.17.35,2.26.32,3.41-6.8,10.41-16.89,15.79-28.6,18.72-4.94.86-8.34-2.66-12.38-4.35-1.24-.75-2.6-.86-3.24-1.02.54-.13,1.67.42,2.82.95,1.07.47,2.16.88,2.95,1.78,1.54,1.75,1.16,3-1.08,3.52-2.27.53-4.6.25-6.91.29-4.21-.87-8.51-1.42-12.33-3.6-1.06-1.47-3.2-2.26-2.89-4.6,3.06-1.41,6.34-.1,9.46-.76.66-.1.15-.61.04-.56-3.38,1.7-7.22-.27-10.65,1.29-1.06.2-2.11.09-3.15-.12-2.18-.97-3.89.59-5.8,1.1-3.64,0-7.44,1.46-10.78-1.2,0-.96,0-1.91,0-2.87Z"/>
  <path class="cls-50" d="M125.11,142.76c4-.02,8.01-.03,12.01-.05.5-.23.89-.12,1.18.35-.03.16-.04.45-.11.46-7.42,1.44-9.72,8.63-14.55,12.98-2.06,1.48-4.16,2.88-6.78,3.16-4.25-2.28-4.6-3.73-2.18-9.03.51-.94.49-1.93.18-2.94,3.41-1.64,6.83-3.29,10.24-4.93Z"/>
  <path class="cls-282" d="M116.09,149.84c-.78,3.14-4.58,6.62,1.03,9.03.32.49.28.94-.12,1.37-1.55.99-3.11,1.87-4.94.64-.66-.61-1.33-1.22-1.99-1.83-2.85-3.17-1.3-6.37-.08-9.57.45-.86,1.22-1.19,2.13-1.28.32.23.65.43,1,.61.83.21,1.71.19,2.49.56.16.15.31.31.47.46Z"/>
  <path class="cls-188" d="M112.2,148.92c-.03-.24-.06-.48-.08-.72.92-.17,1.83-.34,2.75-.52.99.39,2.84.28,1.22,2.15,0,0-.03-.02-.03-.02-1.1-1.09-2.74.14-3.85-.9Z"/>
  <path class="cls-93" d="M122.68,143.84c-.86-1.58-1.26-1.97-1.21-2.29.1-.64.57-1.21,1.29-1.04.33.08.8.65.78.97-.05.61-.41,1.19-.86,2.36Z"/>
  <path class="cls-227" d="M121.28,173.51c.13-.31.08-.58-.13-.84,3.05-5.27,8.24-8.02,13.43-10.31,3.68-1.62,11.75,5.06,11.78,9.07-.15.46-.3.93-.45,1.39-8.16,2.16-16.42.42-24.62.69Z"/>
  <path class="cls-223" d="M146.36,171.44c-.27-4.57-5.08-4.11-7.27-6.56-3.22-3.59-5.68-1.03-8.32.97-3.13,2.37-6.41,4.56-9.62,6.82-3.4.81-3.14-2.69-4.62-4.09-1.72-1.62-2.31-4.24-4.28-5.79-.06-.64-.13-1.28-.19-1.92,1.68-.34,3.37-.69,5.05-1.03.87.44,1.35,1.23,1.85,2.01,1.28,2.66,2.98,3.16,5.48,1.37,2.13-1.53,4.3-3.02,6.41-4.57,3.5-2.58,6.74-3.07,10.06.25.91.91,2.15,1.49,3.29,2.16,3.02,2.48,8.12,2.91,8.22,8.29.21,5.95,1.09,11.84,1.48,17.76.63,1.09,1.69,1.42,2.84,1.61,12.06,2.42,10.96,3.46,14.38-8.13.19-.64.51-1.25.63-1.89,1.37-7.92,5.99-12.25,14.06-12.83.66-.05-.1.18.48-.11,7.89-3.92,13.25-.4,17.65,5.95.58,1.32,1.02,2.76,2.77,3.03,1.45.86,2.5,2.2,3.78,3.25.96.79,2.15,1.4,3.21.68,5.7-3.89,11.94-7.14,16.17-12.87.18-1.58,1.62-3.61-1.48-4.01-2.44-3.46-4.03-7.24-4.32-11.51.05-.52.2-1.01.41-1.49.7-1.15,1.54-2.1,3.01-2.21,2.66,1.44,2.61,4.41,3.66,6.73,2.23,4.93,3.95,10.05,5.33,15.29-4.35,5.84-10.86,9.04-16.48,13.32-1.85,1.4-3.42,3.81-6.37,3.22-.53.32-1.06.64-1.59.95-5.17-2.04-7.48-7.4-11.95-10.25-.54-.61-1.08-1.22-1.62-1.83-5.01-4.27-10.08-1.56-15.15-.14-2.39.67-3.24,2.55-4,4.63-2.16,5.87-3.48,12.04-6.3,17.68-.32.36-.72.63-1.17.8-6.68.16-13.01-2.85-19.74-2.24-.33-.27-.66-.53-.99-.8-2.46-.69-3.07-2.42-3.22-4.84-.36-5.9-1.01-11.77-1.55-17.66Z"/>
  <path class="cls-119" d="M177.09,196.89c0,.32,0,.64,0,.97-1.75-.22-3.68.65-5.22-.87,0,0,.24-.08.24-.08,1.66-1.32,3.32-1.58,4.99-.01Z"/>
  <path class="cls-173" d="M177.09,196.89c-1.66,0-3.32,0-4.99,0,2.2-6.75,4.51-13.47,6.56-20.27.71-2.34,1.77-3.7,4.28-4.04,1.78-.24,3.66-.65,5.22-1.5,4.51-2.47,7.72-1.01,10.33,2.92-1.36,4.29-2.72,8.57-4.08,12.86-.32.98-.65,1.96-.97,2.94-1.71,1.44-.57,5.22-4.17,5.11-2.21.71-4.6.29-6.78,1.14-1.19.46-2.55.05-3.71.66l-1.67.17Z"/>
  <path class="cls-138" d="M182.07,195.75c2.22-1.74,4.77-.7,7.18-.84-1.4.34-2.8.68-4.19,1.02-1.03.49-2.03.67-2.98-.18Z"/>
  <path class="cls-177" d="M182.07,195.75c.99.06,1.99.12,2.98.17-1.93,1.64-4.18.68-6.3.79,1.1-.32,2.21-.64,3.32-.96Z"/>
  <path class="cls-184" d="M62.11,139.92c3.33.01,6.67-.12,9.98.07,2.99.17,4.05-.84,4.07-3.96.02-4.75-1.08-9.62.85-14.26.07,4.35.15,8.7.22,13.06.25.35.51.71.76,1.06.67,3.68-.5,5.47-4.59,5.09-3.39-.32-6.83-.08-10.25-.09-.35-.32-.69-.64-1.04-.97Z"/>
  <path class="cls-29" d="M271.94,97.94c1.66,2.55,3.42,5.02,5.75,7.03,2.31,3.44-.38,6.62-.52,9.93-1.07,5.22-2.08,10.45-3.25,15.65-.34,1.53-.81,3.23-2.87,3.47,0,0,.05-.42.05-.42-4.82-2.88-9.78-5.2-15.65-4.48-1.27.15-2.62-.16-3.56-1.27.36-2.31,2.29-2.02,3.84-2.27,1.95-.31,3.99.2,5.89-.62,2-1.97.73-4.57,1.31-6.82.06-.49.16-.98.29-1.46,1.45-4.49,2.04-9.22,3.78-13.62.66-1.3.86-2.76,1.33-4.13.38-.92.86-1.76,1.8-2.23.61.41,1.21.82,1.82,1.24Z"/>
  <path class="cls-167" d="M213.64,185.14c7.48-5.42,14.95-10.84,22.43-16.27,4.44-.57,8.99-1.9,12.87,1.71-1.07.8-2.37,1.47-1.96,3.18-3.84-.17-5.59,2.95-7.98,5.05-1.51.85-3.17,1.47-4.21,2.97-2.38.71-3.96,2.58-5.85,4.01-2.06.28-4.12.56-6.18.84-2.97-.91-6.62,2.29-9.12-1.5Z"/>
  <path class="cls-153" d="M251.89,127.76c2.65.07,5.32.38,7.94.16,5-.42,8.44,1.94,11.27,5.67-2.01.14-4.02.29-6.03.43-4.04.97-8.21-.35-12.24.73l-2.77.13c-2.64,2.05-3.86,5.04-5.24,7.93-1.07,1.37-2.13,2.73-3.2,4.1-.25.93-.92,1.4-1.81,1.29-3.79-.5-7.33-1.84-10.78-3.41-1.35-.61-1.85-1.8-1.68-3.27,1.74-4.51,4.86-8.2,7.4-12.22.91-1.43,2.39-2.45,4.1-2.49,4.37-.12,8.84-1.34,13.04.96Z"/>
  <path class="cls-29" d="M228.12,142.01c3.69,3.87,8.58,4.43,13.5,4.89.32.59.65,1.18.97,1.77-.83,1.88-.18,3.22,1.51,4.18-.28,1.52.18,2.83,1.11,4.01.31,1.32.62,2.64.93,3.96.87,2.06,1.37,4.3,2.92,6.04-.68,1.22,1.72,2.55-.13,3.73-4.16-1.57-8.72-.1-12.87-1.71-3.54-7.16-4.75-15.26-8.93-22.17-1.48-1.42-1.37-3-.46-4.65.47-.48.95-.49,1.44-.03Z"/>
  <path class="cls-84" d="M252.83,134.75c4.02-1.18,8.14-.77,12.24-.73-.01.27-.03.55-.04.82-4.07-.03-8.13-.06-12.2-.1Z"/>
  <path class="cls-123" d="M221.06,63.92c-.14,2.13-1.76,1.96-3.2,2.07-.62-.42-1.24-.84-1.86-1.26-.64-1.5-2.85-1.94-2.69-3.99-2.05-5.62-6.71-8.73-11.44-11.69-7.28-4.55-15.41-5.49-23.78-5.26-.41-.85.24-1.04.8-1.29-.99-.04-1.28.83-1.81,1.39-8.25,1.5-15.67,5.14-23,8.99-1.65-.48-3.66.85-5.04-1,10.33-8.06,21.78-13.16,35.14-12.89,2.63.05,5.25.62,7.87.95,7.63.41,13.85,3.96,19.49,8.79,3.26,2.19,5.18,5.55,7.52,8.54,1.33,2.01,2.58,4.06,2,6.65Z"/>
  <path class="cls-236" d="M213.32,60.74c1.34,1.03,2.6,2.12,2.69,3.99-12.94-5.32-25.38-3.69-37.32,2.97-2.57,1.43-4.74,2.16-7.35-.05,12.36-8.73,25.51-11.8,40.06-7.06.59.19,1.28.11,1.92.15Z"/>
  <path class="cls-6" d="M142.25,83.89c.45-2.2,3.35-1.9,3.98-3.91.33-1.83,2.02-2.19,3.25-3.04.95-.56,1.82-1.26,2.82-1.76,1.26-.54,2.56-.96,3.9-1.26,2.02-.34,4.18.17,6.05-1.01,3.48-1.45,7.13-1.12,10.7-.77,3.76.37,5.63,2.96,6.26,6.53-.41.92-1.18,1.2-2.11,1.23-8.27-7.24-16.06-2.1-23.92.95-2.39.93-4.06,3.56-7.07,3.05-1.29,0-2.58,0-3.87,0Z"/>
  <path class="cls-208" d="M191.06,76.99c.03-1.34.72-2.04,2.05-2.13,4.96,1.59,10.21,2.31,14.9,4.76,1.73,1.86,5.24,1.18,6.1,4.28l-3.19.06c-1.22.96-2.54.57-3.74.11-4.75-1.82-9.56-3.44-14.38-5.06-.92-.31-1.85-.76-1.75-2.02Z"/>
  <path class="cls-208" d="M189.14,73.82c.02.6.04,1.2.06,1.8-6.67-1.05-3.84,4.03-4.32,6.85-.24,1.42.12,2.93.15,4.4.02.88-.34,1.7-1.3,1.79-1.3.12-1.54-.94-1.77-1.92.08-.63.16-1.25.23-1.88.67-1.99.58-3.98.04-5.98-.41-1.29-.82-2.58-1.23-3.87-.84-3.29,1.33-2.53,3.1-2.31,1.71.22,3.49.12,5.02,1.12Z"/>
  <path class="cls-263" d="M139.33,68.04c-1.23-.61-3.29.71-3.78-1.21-.32-1.24.95-2.26,1.85-3.23,1.98-2.13,3.84-4.38,5.74-6.59,3.19,1.86-.86,4.08.3,6.04-.49.86-.99,1.72-1.48,2.59-.3,1.43-.92,2.52-2.63,2.4Z"/>
  <path class="cls-31" d="M143.44,63.05c-2.83-1.88,1.7-4.12-.3-6.04.61-.39,1.21-.78,1.82-1.17,1.58-1.1,3.73-1.62,4.1-3.97,0,0,0,0,0,0,1.69.31,3.62-.63,5.04,1-3.41,3.54-8.17,5.66-10.65,10.17Z"/>
  <path class="cls-143" d="M139.33,68.04c.88-.8,1.75-1.6,2.63-2.4,3.53,2.63,6.85,2.61,9.92-.76.68.03,1.25.31,1.76.74.66,1.2,2.92,1.23,2.45,3.29-5.69-.02-11.37-.03-17.06-.05.13-.26.23-.53.3-.81Z"/>
  <path class="cls-76" d="M141.16,72.86c-.65-.57-1.3-1.15-1.95-1.72,4.66,0,9.37-1.12,13.96.63-1.02,1.45-2.73,1.47-4.19,2.03-1.32.33-2.67.41-4.03.4-1.4-.06-2.79-.13-3.78-1.34Z"/>
  <path class="cls-46" d="M149.08,72.76c1.12-1.3,2.7-.74,4.08-.99,1.96.12,4.14-.81,5.72,1.16-.33,1.72-2.13,1.2-3.06,2-.97,1.13-2.25,1.18-3.58,1.02-.74-.11-1.2-.54-1.42-1.22,1.38-2.35-2-.57-1.74-1.97Z"/>
  <path class="cls-136" d="M181.97,49.81c3.73-1.9,7.31-.61,10.93,1.02h-8.89c-.52-.66-1.62-.16-2.04-1.02Z"/>
  <path class="cls-3" d="M183.99,53.83c2.89-1.73,6.05-.6,9.07-.89.95,1.39,3.65-.82,3.94,1.92-3.02-.03-6.04-.06-9.07-.09-1.17-.92-2.85.28-3.95-.95Z"/>
  <path class="cls-143" d="M159.1,66.91c1.83.11,3.36-.32,4.11-2.2.45-.15.75,0,.91.44-.12,1.3.37,2.46,1.52,3.75h-8.55c-.61-1.94,1.37-1.29,2-1.99Z"/>
  <path class="cls-240" d="M214.11,83.89c-1.54-2.13-4.77-1.85-6.1-4.28,3.61.8,6.91,2.35,10.08,4.2.35.23.46.45.35.68-.11.23-.23.35-.34.35-.34.05-.69.1-1.03.16-1.06-.18-2.26.03-2.95-1.11Z"/>
  <path class="cls-245" d="M164.12,65.15c-.3-.15-.61-.29-.91-.44.36-2.87,2.75-3.27,4.87-3.99.44-.22.85-.17,1.23.14-.83,2.52-2.63,3.87-5.19,4.29Z"/>
  <path class="cls-171" d="M159.1,66.91c-.67.66-1.33,1.33-2,1.99-.34,0-.67,0-1.01,0-.61-1.32-3-.7-2.98-2.72,0-1.52,1.12-2.36,2.06-3.3,1.02,1.63,1.09,4.17,3.92,4.03Z"/>
  <path class="cls-24" d="M165.05,55.11c1.59-1.1,3.24-2.05,6.12-2.01-1.79,2.06-2.84,3.69-5.18,3.63-.77-.27-1.08-.82-.94-1.62Z"/>
  <path class="cls-148" d="M178.02,56.8c-2.32,1.17-4.42,2.81-7.05,3.34-1.26-2.6,1.02-2.51,2.38-3.12,1.22-.39,2.44-.79,3.66-1.18,1.05-.44,1.21.07,1.01.96Z"/>
  <path class="cls-185" d="M183.99,53.83c1.32.31,2.88-.39,3.95.95-2.28.39-4.56.79-6.83,1.18-.56-.63-1.65-.22-2.09-1.07,1.44-1.35,3.29-.81,4.97-1.05Z"/>
  <path class="cls-171" d="M173.35,57.02c-.83,1.01-2.54,1.35-2.37,3.12-.36.7-.99.78-1.67.72-.41-.05-.82-.1-1.23-.14.6-2.89,2.41-4.04,5.28-3.69Z"/>
  <path class="cls-135" d="M162.06,58.81c-1.19,1.08-2.33,2.27-4.28,1.94.49-2.46,2.61-2.82,4.31-3.65.61.58.59,1.15-.03,1.71Z"/>
  <path class="cls-260" d="M181.97,49.81c.68.34,1.36.68,2.04,1.02-2.09-.18-3.94,1.51-6.52.78,1.1-2.16,2.96-1.59,4.48-1.8Z"/>
  <path class="cls-170" d="M197,54.86c-.87-1.55-3.09-.34-3.94-1.92,2.48-.18,4.89.05,7.12,1.39-.95,1.04-2.12.42-3.18.53Z"/>
  <path class="cls-221" d="M155.82,74.93c1.02-.67,2.04-1.34,3.06-2,1.12,0,2.24-.02,3.37-.03-1.79,1.81-4.02,2.21-6.43,2.03Z"/>
  <path class="cls-35" d="M162.06,58.81c0-.57.02-1.14.03-1.71.99-.66,1.97-1.33,2.96-1.99.31.54.63,1.08.94,1.62-1.31.69-2.62,1.39-3.93,2.08Z"/>
  <path class="cls-105" d="M155.18,62.88c.41,1.79-.76,2.59-2.06,3.3-.41-.43-.82-.87-1.23-1.3.85-1.07,1.75-2.06,3.29-2Z"/>
  <path class="cls-59" d="M182.24,78.88c1.43,2,1.38,3.99-.04,5.98.01-1.99.03-3.99.04-5.98Z"/>
  <path class="cls-231" d="M179.02,54.88c.85.07,1.66.2,2.09,1.07-1.03.28-2.05.57-3.08.85-.34-.32-.67-.64-1.01-.96.4-.88,1.21-.9,2-.97Z"/>
  <path class="cls-202" d="M184.11,72.7c-1.54.09-3.04.23-3.1,2.31-.67-.74-1.54-1.83-.88-2.54,1.18-1.26,2.66-.3,3.98.23Z"/>
  <path class="cls-43" d="M177.09,43.89c.33-2.59,2.26-1.78,5.02-2.12-2.06,1.04-3.04,1.53-4.01,2.03-.34.03-.67.06-1.01.1Z"/>
  <path class="cls-283" d="M218.09,84.85c0-.34,0-.69-.01-1.03,1.33.37,2.67.73,4,1.1-.03.61-.06,1.21-.1,1.82-1.3-.63-2.6-1.26-3.89-1.88Z"/>
  <path class="cls-49" d="M231.63,36.12c5.02-1.78,10.05-3.56,15.07-5.34.8-.42,1.33-.03,1.8.58.5,1.51.09,2.62-1.53,2.99-1.54.35-2.51,1.5-3.65,2.41-2.95,2.08-6.33,3.17-9.73,4.22-1.79.17-3.51.62-5.08,1.53-1.24.56-2.46,1.22-3.9,1-.44-.13-.82-.37-1.15-.69-.97-1.51-2.07-2.84-4.12-2.77-1.23-.17-2.33-.61-3.25-1.46-.95-.95-2.05-1.7-3.21-2.34-3.05-1.7-3.89-4.19-3.26-7.55.64-3.42,1.21-6.86,1.69-10.31.31-2.23.31-4.36-2.24-5.43-1.14-.21-2.29-.37-3.4-.65-4.28-1.08-7.92-.69-9.84,4.02-.24.6-.91,1.03-1.14,1.63-3.93,10.52-13.17,12.29-22.6,13.86-2.49.41-3.06-1.3-4.02-2.85-5.63-9.07-5.53-8.85-14.93-3.72-3.36,1.84-3.35,4.72-3.85,7.49-.44,2.42-.3,4.98-.16,7.47.17,3.07-.47,5.55-3.47,7.07-1,.51-1.93,1.38-2.6,2.3-4.35,6.02-9.83,7.99-16.82,4.97-.15-.07-.3-.17-.46-.19-3.52-.45-4.77,2.7-5.44,4.71-1.19,3.58-7.38,5.86-3.24,10.95.16,1.47-1.23,1.81-1.94,2.64-4.58-1.41-5.63-3.7-3.18-6.97,1.89-1.08,3.68-2.22,2.75-4.89,1.62-2.13,3.8-3.92,4.06-6.86,1.09-2.93,2.61-5.19,6.31-4.06,1.52,1.33,3.58-.07,5.15,1.01.32-.11.61-.06.89.13,1.68.56,3.35.99,4.92-.3,1.67-1.92,3.34-3.84,5.01-5.76,2.15-1.01,3.23-2.58,3.25-5.07.02-2.64.78-5.31.57-7.91-.38-4.91.95-8.68,5.59-10.89,2.84-1.45,5.69-2.89,8.53-4.34,2.21.88,3.53-.82,5.1-1.77.95.7,1.9,1.39,2.84,2.09.58.2.92.62,1.03,1.22,1.31,6.42,3.6,8.59,8.01,7.6,2.04-.25,4.09-.5,6.13-.75,1.47.81,2.82,1.28,3.16-1.11,0-.32,0-.64,0-.97,1.2-.7,1.61-1.86,1.83-3.13,1.87-1.59,3.5-3.34,3.99-5.86,2.31-1.83,3.8-4.27,5.12-6.84,7.12-.74,13.87,1.57,20.79,2.5,1,.13,1.11,1.07,1.37,1.82-.61,3.61-.68,7.33-2.12,10.78-.69-.59-.9-1.25-.62-1.65.39,1.55-1.05,3.09-1.09,5,.24-.79-.1-2.1,1.5-1.7-.1,1.45,0,2.95-.34,4.33-.6,2.4-.15,4.17,2.33,5.03,2.52.87,3.91,3.19,6.03,4.56,2.59,1.36,4.83.37,7.02-1.03.28-.2.46-.43.56-.7Z"/>
  <path class="cls-69" d="M209.07,12.94c3.49-.23,4.36,1.71,3.86,4.72-.24,1.46-.5,2.93-.88,4.36-1.68,6.37-2.46,12.42,4.96,15.95-.69,4.61-3.59,8.11-5.92,11.9-5.37-5.17-12.24-7.48-19.03-9.94,1.53,0,2.94-.15,3.84-1.68,4.4-7.52,8.82-15.02,13.26-22.51.59-1,.34-1.88-.09-2.8Z"/>
  <path class="cls-263" d="M149.06,51.87c1.61,4.39-1.81,3.6-4.1,3.97.55-2.16,2.61-2.78,4.1-3.97Z"/>
  <path class="cls-128" d="M216.03,23.93c-1.25.59-.65,2.09-1.51,3.03-1.23-2.66.64-4.73,1.27-7.03.15.78.3,1.57.45,2.35-.07.55-.14,1.1-.21,1.64Z"/>
  <path class="cls-146" d="M231.07,36.82c-1.95,2.98-4.37,2.8-7.02,1.03,2.52.9,4.62-1.09,7.02-1.03Z"/>
  <path class="cls-45" d="M136.04,50.68c-1.53,1.93-3.19,1.56-4.92.3,1.64-.1,3.28-.2,4.92-.3Z"/>
  <path class="cls-45" d="M130.24,50.85c-1.76-.13-3.71.75-5.15-1.01,1.77.04,3.56,0,5.15,1.01Z"/>
  <path class="cls-124" d="M114.72,60.76c4.1,2.56-.97,3.91-1,6.04-.01,1-1.21-.53-1.75-1.14.43-1.9,1.2-3.62,2.75-4.89Z"/>
  <path class="cls-257" d="M164.09,14.94c-1.4,1.46-1.63,6.29-5.1,1.77,1.1-1.25,2.57-1.77,4.13-2.1.32.11.64.22.97.33Z"/>
  <path class="cls-205" d="M167.96,18.25c-.34-.41-.69-.82-1.03-1.22.37-.05.74-.11,1.1-.16-.02.46-.05.92-.07,1.39Z"/>
  <path class="cls-278" d="M123.02,76.82c2.83,2.47,1.12,7.75-2.98,9.21-2.59-.14-4.37-.81-2.61-3.88.6-1.04.76-2.18.52-3.36,1.05-.65,2.1-1.3,3.15-1.95.64,0,1.28,0,1.92,0Z"/>
  <path class="cls-131" d="M149.08,72.76h3.82c.26,1.74-1.68.97-1.9,2.01-4.27,2.57-8.61,1.9-12.98.32-1.26-.53-2.95.47-3.9-1.11.97-.04,1.95-.07,2.92-.11,2.59-1.19,5.46.27,8.06-.86,1.32-.08,2.65-.16,3.97-.24Z"/>
  <path class="cls-38" d="M138.03,75.09c4.33-.11,8.65-.21,12.98-.32.41.39.83.79,1.24,1.18-.55.79-1.04,1.66-2.15,1.75-3.05-1.03-6.23-.31-9.32-.7-.22-.03-.45-.07-.67-.11-1.63.03-3.25.07-4.88.1-1.41-.25-3.03.35-4.16-1.03,2.31-.4,4.81.7,6.97-.87Z"/>
  <path class="cls-261" d="M185.26,23.99c1.31,1.45-.07,1.79-.97,2.3-1.35.77-2.02.25-2.19-1.19,1.05-.37,2.11-.74,3.16-1.11Z"/>
  <path class="cls-129" d="M145.11,73.01c-2.54,1.69-5.37.6-8.06.86.34-.31.68-.62,1.02-.93,1.03-.02,2.06-.05,3.1-.08,1.32.05,2.63.1,3.95.15Z"/>
  <path class="cls-226" d="M243.06,35.92c.43-2.88,4.03-1.79,5-3.99.14-.06.33-.07.42-.17.52-.55,1.52,2.53,1.73-.23.9,1.15,1.8,2.29,2.7,3.44,2.74,5.79,7.64,10.36,9.46,16.67-.99,4.81-5.18,7.03-8.43,9.83-2.26,1.95-4.43,3.92-6.33,6.21-2.04,1.65-2.14,3.69-1.81,6.19.86,6.47,1.49,12.88,9.54,14.62.6.13.96.86,1.37,1.38l10.44,4.98c-3.11,3.06-6.77,1.35-10.26,1.21-.74-.08-1.45-.25-2.15-.49-2.87-1.31-5.85-2.37-8.85-3.31-4.47-1.39-6.55-4.1-6.14-8.83.21-2.47.34-5.07-.56-7.4-2.19-5.63-.54-9.87,3.94-13.59,2.8-2.32,5.21-5.1,7.78-7.69,4.66-4.69,4.66-4.72.88-10.42-1.37-2.07-2.77-4.13-4.1-6.23-.7-.96-.96-2.76-2.85-1.46-.71.03-1.33-.16-1.79-.71Z"/>
  <path class="cls-207" d="M250.2,31.53c-.2,2.92-1.33.81-2.15.4-.45-.39-.9-.77-1.36-1.16,1.7-2.19,2.5-.28,3.5.76Z"/>
  <path class="cls-71" d="M247.1,67.04c4.28-5.93,10.56-9.89,15.26-15.4.85.86,1.7,1.71,2.55,2.57,1.47,2.68,2.66,5.59,4.49,8,2.43,3.2,2.81,5.94-.37,8.72-1.37.53-2.31,1.34-1.94,3-2.42-.51-3.21,1.4-4.3,2.87-1.67,1.34-3.33,2.68-5,4.02-1.37,1.35-2.76,1.95-4.05-.05-1.81-2.8-4.44-4.89-6.7-7.25-2.45-2.55-2.33-4.34.05-6.49Z"/>
  <path class="cls-52" d="M247.1,67.04c-2.36,3.07.6,4.58,1.82,6.72,1.62,2.84,5.36,3.85,6.19,7.35.03.11,1.76-.18,2.69-.29-2.17,2.23-2.58,4.67-.91,7.37-.06.56-.12,1.11-.18,1.67-2.93-1.11-5.85-2.22-8.77-3.32-1.17-.44-1.81-1.13-1.97-2.51-.46-3.94-1.04-7.87-1.73-11.78-.46-2.61.96-4,2.86-5.21Z"/>
  <path class="cls-229" d="M256.99,94.92c3.39.49,6.78.8,10.16-.07.84,0,1.62.13,2.05.99-2.27.98.48,2.07-.07,3.09-.02,1.5.02,3-.93,4.3-.65.14-.72-1.59-1.01-.75-.63,1.84-1.13,3.75-1.72,5.63-.69.76-1.46,1.29-2.55.91-.1-.12-.31-.26-.3-.38.36-5.49-.69-10.4-5.64-13.71Z"/>
  <path class="cls-258" d="M269.13,98.92c-.95-1.05-3.04-2.13.07-3.09.31.29.62.58.92.87-.33.74-.66,1.48-.99,2.22Z"/>
  <path class="cls-127" d="M131,119.93c-1.2-1.48-1.46-3.32-1.96-5.07,1.35-.63,2.15.64,3.23.93,14.15,4.71,27.78,1.1,41.41-2.55,13.09-3.51,25.81-8.39,39.27-10.55,1.07-.16,1.47.33,1.3,1.36-1.06.95-2.13,1.89-3.19,2.84-.8,3.05-3.88,4.17-5.53,6.5-1.57,1.13-1.91,3.46-4,4.08-.82.04-1.48-.22-1.93-.94-.92-2.51-2.91-1.62-4.62-1.39-10.83,1.46-21.41,4.24-32.16,6.13-7.02,1.24-14.03,2.33-21.19,1.99-1.98-.09-3.98,0-5.82-.94-1.45-1.11-3.11-1.8-4.82-2.39Z"/>
  <path class="cls-97" d="M207.02,130.65c-.29-.97-.58-1.94-.87-2.92,1.51-1.42.43-3.81,1.94-5.23l-.03-.27c.57-4.63,4.05-7.69,6.17-11.49.75-.99,1.85-1.39,2.95-1.79.83-.38,1.65-.76,2.48-1.14-2.42,8.1-6.42,15.38-11.55,22.06.05.84-.05,1.47-1.09.78Z"/>
  <path class="cls-42" d="M215.3,111c-2.41,3.74-4.83,7.49-7.24,11.23-2.15-2.62.44-4.44,1.13-6.57.65-2.02,2.68-3.39,2.75-5.71.14-.61.52-.98,1.14-1.1.33,0,.66.01.99.03.88.44,1.05,1.28,1.24,2.13Z"/>
  <path class="cls-28" d="M213.07,108.85c-.38.37-.76.74-1.14,1.1-2.76.16-3.44,3.15-5.6,4.13-1.19.19-1.69-.31-1.49-1.5,1.99-1.98,3.3-4.71,6.21-5.7.96.36,1.62,1.03,2.02,1.97Z"/>
  <path class="cls-65" d="M132.27,115.79c-1.08-.31-2.15-.62-3.23-.93-1.24-.98-1.75-2.34-2.01-3.84.07-.51.15-1.02.22-1.53,1.67,2.1,3.34,4.2,5.01,6.3Z"/>
  <path class="cls-10" d="M215.3,111c-.94-.4-1.2-1.2-1.24-2.13,1.11-2.73,2.09-.5,3.11.08-.63.68-1.25,1.37-1.88,2.05Z"/>
  <path class="cls-249" d="M214.24,104.04c-.43-.45-.86-.9-1.3-1.36,1.1-.8,2.53-1.53,3.36-.22.43.69-1.06,1.38-2.06,1.58Z"/>
  <path class="cls-234" d="M91.03,102.71c-.76-1.05-1.92-.73-2.95-.86,1.41-1.51,3.29-.8,4.97-1.05.94-.35,2.01-.97,1.94.89-1.17.26-1.88.91-1.85,2.19-.7-.39-1.41-.78-2.11-1.17Z"/>
  <path class="cls-262" d="M94.99,101.69c-.65-.3-1.29-.59-1.94-.89,1.55-1.51,3.48-.74,5.26-.88-1.11.59-2.22,1.18-3.33,1.77Z"/>
  <path class="cls-69" d="M248.09,36.87c.13.1.3.18.39.31q9.13,12.62-1.77,23.55c-1.06,1.06-1.99,2.28-3.19,3.14-4.02,2.9-5.32,6.51-3.28,11.14.83,1.88.79,3.87.81,5.87.08,8.39.11,8.33,8.28,11.26,1.98.71,4.28.89,5.77,2.7-4.93,6.81-9.1,14.1-13.43,21.28-2.87,4.76-2.84,4.78,2.41,5.69.83.14,1.6.39,2.16,1.07-.96,3.28-3.82,2.29-5.82,2.15-4.64-.33-7.52,1.43-9.44,5.64-1.59,3.46-3.56,6.78-6.11,9.67-.27.35-.56.7-.83,1.05-1.25,1.52-.09,3.4-.73,5.01-5.5,9.28-11.12,18.47-16.89,27.58-1.15.38-1.86-.12-2.34-1.13-5.65-8.12-12.67-7.18-21.45-5.23-8.48,1.88-8.49,8.13-10.22,13.38-4.27,12.97-1.69,11.96-16.31,8.81,1.23-6.16,5.77-10.55,8.61-15.85,2.49-4.65,5.39-9.1,8.04-13.69,1.65-2.87.15-3.05-2.13-2.78-1.07-.18-1.94-.54-1.67-1.9.63-1.09,1.65-1.78,2.83-1.77,8.66.09,15.85-4.21,23.3-7.71,1.28-.41,2.65-.66,3.53-1.86,4.66-3.63,7.67-8.93,12.54-12.35,12.87-14.95,18.24-32.1,15.17-51.73-.38-2.43-.81-4.86-1.22-7.29,7.63-9.89,13.53-20.87,19.99-31.51.94-1.54,1.49-3.36,3.02-4.51Z"/>
  <path class="cls-69" d="M243.06,35.92c.67.01,1.34.02,2.01.03.38,2.91-1.56,4.98-2.87,7.15-5.75,9.6-12.35,18.69-17.18,28.84-2.08-2.3-1.39-5.97-3.96-8.03-.98-2.01-1.96-4.03-2.95-6.04,1.57-2.9,2.92-5.95,4.98-8.53,1.61-2.03,1.82-4.05.95-6.34,1.34-.36,2.67-.72,4.01-1.08,1.61-.84,3.44-1.13,5.05-1.98l9.95-4.02Z"/>
  <path class="cls-95" d="M211.14,131.91c-3.12,5.15-7.24,9.38-12.06,12.95-.78,1-2.11,1.16-3,2-8.26,5.22-17.33,7.97-26.99,8.99-1.58,1.07-2.57.2-3.43-1.06-.23-.83-.14-1.59.51-2.22,1.73-.48,3.54.05,4.83-.22-.07.04-.61,0-1.15,0-1.33.02-2.66-.08-3.99.12-1.43.18-2.87.39-2.74-1.8,5.38-.4,10.73-1.09,16.07-1.8,11.32-2.96,20.71-8.85,27.84-18.21.36-.26.73-.52,1.09-.78,1.57-.14,1.95,1.46,3.03,2.04Z"/>
  <path class="cls-80" d="M225.02,71.95c-.22-2.42.59-4.56,1.83-6.57,6.07-9.81,12.14-19.62,18.21-29.42,1.36-.84,2.4-.67,3.03.91-.48,4.69-3.84,7.96-6.01,11.76-4.43,7.74-9.31,15.22-14.05,22.77-.62.99-1.13,2.65-2.94,1.5-.03-.31-.05-.63-.07-.94Z"/>
  <path class="cls-144" d="M223.6,95.03c.39,1.46.84,2.75-.07,3.98-.85-1.46-.35-2.81.07-3.98Z"/>
  <path class="cls-190" d="M146.12,83.9c6.55-5,13.87-7.99,22.1-8.97,4.35-.52,7.42.63,8.9,4.96.19,1.14.28,2.31.58,3.41.7,2.56-.05,3.69-2.86,3.66-9.31-.12-18.61-.09-27.92-.11-3.98,0-1.15-1.8-.79-2.95Z"/>
  <path class="cls-41" d="M191.06,76.99c6.62,2.32,13.25,4.64,19.87,6.97.38.33.75.65,1.13.98.59,1.12-.47,1.42-.99,1.99-6.66,0-13.33-.27-19.98.09-4.34.24-5.12-1.44-5.19-5.39-.08-4.18,1.39-5.37,5.16-4.65Z"/>
  <path class="cls-150" d="M211.06,86.93c.33-.67.66-1.33.99-1.99,1.04.4,2.08.81,3.12,1.21-.02.26-.04.52-.06.78h-4.06Z"/>
  <path class="cls-219" d="M30.31,116.92c1.42-1.6,3.25-.99,4.98-.92-.04.6-.08,1.2-.11,1.8-1.74.34-3.29-.33-4.87-.88Z"/>
  <path class="cls-167" d="M131,119.93c1.66-1,3.16-1.29,4.1.91-.9,3.93,1.12,5.95,4.62,6.9,4.57,1.23,9.19,1.02,13.8.16,7.49-1.4,14.79-3.67,22.29-5.02,1.08.1,2.07.37,2.52,1.51-1.84,4.29-6.09,4.89-9.76,6.36-2.08.36-3.93,1.62-6.11,1.62-.98.63-2.21.78-3.18,1.42,1.04-.66,2.36-.74,3.4-1.39,2.89-.4,5.57-1.55,8.34-2.38,3.46-.77,6.42-3.17,10.14-3.11,1.1.15,2.01.55,2.34,1.74-1.31,4.44-5.53,3.68-8.67,4.85-.91.42-1.96.28-3.12.74,1.64-.23,2.99-.59,4.35-.99,3.73-.7,7.37-2.02,11.23-1.81,3.07.17,4.11-3.16,6.7-3.76,1.74,4.46-1.14,5.62-4.55,6.09-4.06.56-8.16.84-12.33,1.25.55,2.39,3.19,1.15,4.42,2.78-3.46,1.98-7.11.74-10.58,1,.29-1.89,1.41-1.5,1.84-1.33-3.15.04-7.06.84-10.96.38-1.26.34-2.52.67-3.78,1.01-6.78-1.53-13.58.63-20.35-.05-.51-.03-.99-.19-1.42-.45-.62-.65-.78-1.37-.33-2.21.39-.73,1.13-.68,1.78-.84-.8-.22-1.61-.31-2.44-.24-1.63-.14-2.78.75-2.69,2.21.13,2.18,2.42,1.09,3.56,1.85.43.21.75.53.96.96-3.54,2.49-7.36,1.97-10.1-1.38,3.03-5.89,5.03-12,3.99-18.76Z"/>
  <path class="cls-264" d="M124.16,86.77c.99-3.26,1.98-6.53,2.97-9.79.78.12,2.01-.02,2.25.41,1.24,2.17-2.46,8.64-5.22,9.38Z"/>
  <path class="cls-110" d="M144.09,78.9c-1.87.71-2.71,3.25-5.17,2.93.39-1.64.79-3.29,1.18-4.93,0,0,.17-.2.17-.2,1.45-.49,2.93-.24,4.4-.24.9,0,1.7.34,1.36,1.44-.27.86-1,1.24-1.94,1.01Z"/>
  <path class="cls-100" d="M144.09,78.9c.97-.61,2.34-1.33.09-1.94-1.24-.34-2.61-.19-3.92-.26,3.38-.72,6.87-2.49,9.82,1.01-1.29.76-2.57,1.52-3.86,2.28-.87-.06-1.7-.2-2.14-1.09Z"/>
  <path class="cls-115" d="M63.06,136.8c-1.97-.6-6.01,1.55-6.45-1.91-.45-3.52,3.87-2.45,6.1-3.29,1.52-.57,3.26-.51,4.87-.86,1.82-.4,3.38-.53,3.52,1.98.12,2.26-.42,4.02-3.13,4.08-1.5.03-3,0-4.91,0Z"/>
  <path class="cls-275" d="M168.16,129.97c3.6-1.15,6.76-3.12,9.86-5.23.31-2.54-1.3-1.01-2.18-1.02-10.03,2.6-19.87,6.13-30.41,6.25-3.58.04-6.98-.69-10.03-2.54-3.01-1.83-3.07-4.64-.3-6.59,8.25,2.45,16.46.76,24.61-.48,13.91-2.11,27.52-5.87,41.56-7.62.56,1.81-1.4,2.66-1.21,4.14l.04.33c-.66.23-1.31.46-1.97.7-.7.98-2.59-.6-2.97,1.81-.35,2.23-2.65,3.6-4.6,4.87-1.23.61-2.54,1.02-3.83,1.46-1.78.86-3.8,1.01-5.59,1.85-3.32,1.02-6.65,2.04-9.97,3.07-1.17.16-2.7,1.4-3.03-.99Z"/>
  <path class="cls-81" d="M189.98,123.91c1.52-1.65,3.73-2.69,4.53-4.96.75-2.13,2.3-1.14,3.63-1.05-1.3,3.29-3.87,6.05-4.16,9.77-.82,3.88-3.47,5-7.14,5.14-3.92.16-7.82.76-11.73,1.17-.99.29-1.23-.08-.87-.98,3.1-1.03,6.3-1.87,8.86-4.09.82-1.25,1.99-2.09,3.28-2.79,1.4-.41,2.46-1.37,3.6-2.21Z"/>
  <path class="cls-7" d="M166.09,152.86c0,.67,0,1.34,0,2.01-1.55,1.55-3.48,1.27-5.39,1.15-2.22-.48-4.46-.88-6.45-2.08-1.65-.88-2.64-3.15-5.07-2.43-2.51-.87-6.21-1.09-2.9-5.2,1.07-.44,2.04-.19,2.95.45,4.18,1.13,8.36,2.26,12.55,3.39.31.5,1.07.2,1.34.75.73,1.14,1.91.91,2.99.99.34.22.45.44.33.65-.12.21-.23.31-.35.31Z"/>
  <path class="cls-22" d="M163.12,150.9c-.45-.25-.91-.5-1.35-.75,2.52-.6,5.17.66,8.14-.69-1.81-1.33-3.34-2.45-4.87-3.58-.23-.91.05-1.34,1.04-1.12,4.74.17,7.96,5.21,13.1,4.1-5.15,2.3-10.61,2.13-16.07,2.04Z"/>
  <path class="cls-21" d="M149.23,146.75l-3.14.07c-1.21.8-2.23,2.08-3.96,1.54-2.01-1.16-3.8-2.47-3.44-5.21.51-1.08,1.46-1.19,2.49-1.14.89,0,1.77-.02,2.66-.03.97.26,1.74.84,2.37,1.59,1.08.98,2.82,1.35,3.02,3.17Z"/>
  <path class="cls-230" d="M137.11,140.07c-.34-.11-.69-.23-1.03-.34-.53-.8-.5-1.5.35-2.06,5.74,0,11.48-.05,17.21.07,1.48.03,3.34-.86,4.4,1.1-6.98.41-13.95.82-20.93,1.23Z"/>
  <path class="cls-248" d="M161.82,137.84c3.92-1.6,8.03-.54,12.87-1-1.72.9-2.73,1.43-3.75,1.96-3.02-.53-6.28,1.2-9.13-.96Z"/>
  <path class="cls-13" d="M146.21,143.59c-.79-.53-1.58-1.06-2.37-1.59,4.07,0,8.14,0,13.14,0-4.07,1.8-7.68-.23-10.77,1.59Z"/>
  <path class="cls-37" d="M208.09,122.5c-.5,1.8,1.45,4.51-1.94,5.23.12-1.94-.85-4.28,1.94-5.23Z"/>
  <path class="cls-94" d="M204.85,112.57c.5.5,1,1,1.49,1.5-1.1,1.25-2.19,2.51-3.29,3.76-.59-.11-.96-.45-1.09-1.04.65-1.62,1.45-3.14,2.89-4.22Z"/>
  <path class="cls-194" d="M201.96,116.8c.36.35.73.69,1.09,1.04-.5.99-.97,2.51-2.12,2.28-1.35-.27-.39-1.94-.82-2.9,0,0-.04-.33-.04-.33.63-.03,1.26-.06,1.89-.09Z"/>
  <path class="cls-39" d="M198.69,124.15c.68,2.23-.51,3.43-1.16,5.1-.7-2-.82-3.57,1.16-5.1Z"/>
  <path class="cls-167" d="M141.17,142.02c-.69.3-1.38.6-2.06.91-.31.42-.65.45-1.03.09l-.95-.31c1.12-1.55,2.29-2.83,4.04-.68Z"/>
  <path class="cls-88" d="M166.08,144.76c-.35.37-.69.75-1.04,1.12-1.17-.06-2.19-.46-3.67-2.06,2.06.25,3.45-.52,4.72.94Z"/>
  <path class="cls-270" d="M138.08,143.01c.34-.03.68-.06,1.03-.09-.07,2.34,2.4,3.14,3.05,5.05.01,1.76-1.45,2.08-2.62,2.49-5.12,1.77-9.78,4.7-15.09,5.98-.53-.04-.98-.24-1.35-.62,2.41-3.06,5.12-5.91,6.81-9.49,1.7-3.6,5.75-1.48,8.17-3.33Z"/>
  <path class="cls-55" d="M123.1,155.83c.35.03.69.07,1.04.1-.1,4.94-2.51,7.31-6.05,5.93-.77-.45-.96-1.19-.98-2-.01-.33,0-.66.01-.99,1.99-1.01,3.99-2.03,5.98-3.04Z"/>
  <path class="cls-74" d="M112.2,148.92c1.34.06,2.84-.54,3.85.9-1.16-.82-3.17,1.96-3.85-.9Z"/>
  <path class="cls-106" d="M206.02,173.9c4.61-9.97,10.52-19.15,16.98-27.99,1.85.76,1.28,2.73,2.02,4.05.36,4.3,2.57,7.97,4.08,11.88,1.61.93,1.16,2.81,1.9,4.14-.74,4.55-5.63,4.87-8.02,7.79-.99,1.21-2.73,1.77-4.04,2.74q-7.06,5.27-12.95-1.64c-.26-.22-.34-.44-.25-.65.09-.21.18-.32.27-.32Z"/>
  <path class="cls-69" d="M160.09,154.86c2,0,4,0,6,0,1,.33,2,.66,3,.99.43.81,1.18.98,2,1,1.16,1.48.39,2.87-.37,4.1-5.79,9.35-11.32,18.87-17.63,27.89-1.41-6.6-1.91-13.29-1.97-20.02,2.66-4.87,4.78-10.08,8.97-13.97Z"/>
  <path class="cls-69" d="M118.09,161.86c4.24.3,4.54-3.44,6.05-5.93,6.01-2.65,12.01-5.3,18.02-7.96,1.31-.38,2.62-.77,3.93-1.15-1.34,4,2.25,3.11,4.01,4.04.28.41.3.83.06,1.27-3.46,2.43-4.53,6.59-7.05,9.71q-7.5-5.09-15.15.48c-.93.68-1.97,1.21-2.85,1.95-3.72,3.12-5.97,2.16-7.01-2.41Z"/>
  <path class="cls-40" d="M143.1,161.84c.88-4.37,2.12-8.5,7.04-10.03,1.69-1.1,2.68.48,3.95,1.02,2,.68,4,1.35,6,2.03-2.51,4.96-4.84,10.05-8.97,13.97-.36-4.98-5.77-4.17-8.02-6.98Z"/>
  <path class="cls-80" d="M153.09,188.84c.61-4.82,4.31-7.99,6.44-12,3.61-6.8,8.84-12.67,11.56-19.99,1.37-1.39,3.19-1.58,4.36-.32.94,1.03-.44,2.39-1.1,3.48-6.08,9.94-12.17,19.87-18.26,29.8-1.1-.02-2.26.16-3-.97Z"/>
  <path class="cls-192" d="M225.02,149.95c-1.22-1.08-1.74-2.51-2.02-4.05-.54-1.68-1.91-3.37.09-5.01,3.69,1.89,3.89,4.66,1.99,7.95-.02.37-.03.74-.05,1.11Z"/>
  <path class="cls-60" d="M225.07,148.84c1.23-3.12-.52-5.5-1.99-7.95,0,0,.01,0,.01,0,1.52.02,3.74-2.07,4.13,1.36-.03,1.48-.06,2.96-.09,4.44-.38,1.01-1.05,1.75-2.07,2.15Z"/>
  <path class="cls-192" d="M231,165.97c-1.21-1.12-1.79-2.52-1.9-4.14.99-.97,2.16-1.98,2.5.33.18,1.21-.37,2.53-.59,3.8Z"/>
  <path class="cls-192" d="M206.02,173.9c.03.32.02.65-.02.97-2.45,1.06-2.88.19-1.93-2.01.65.35,1.3.69,1.95,1.04Z"/>
  <path class="cls-64" d="M227.23,142.25c-1.02-1.53-3.03-.07-4.13-1.36,2.42-3.88,5.12-7.62,7.2-11.68,2.01-3.93,4.47-6.08,9.19-5.45,2.13.29,4.61.85,6.62-.85,2.2-2.09,4.97-1.36,7.51-1.36,2.95,0,5.14-.84,6.18-3.76,1.03-1.59.91-3.38.94-5.16.3-1.5-.08-3.4,2.16-3.8.71-.32,1.43-.64,2.14-.96,1.51,3.31-1.17,6.25-.85,9.46l.11.3-.23.23c-.6,2.64-1.43,5.26-.92,8.03-3.46,2.42-7.68.21-11.26,1.86-12.2-2.39-19.37,3.62-23.77,14.26-.3.06-.6.14-.88.24Z"/>
  <path class="cls-225" d="M264.19,117.34c-.84-3.25,1.12-6.26.85-9.46.36-1.92.68-3.85,1.12-5.76.16-.69.44-1.87,1.47-1.18.48.32.4,1.49.57,2.28-1.39,4.69-1.89,9.63-4.01,14.12Z"/>
  <path class="cls-225" d="M263.15,125.9c-1-.17-2.14-.36-1.63-1.77.76-2.12,1.69-4.18,2.55-6.26.31,2.75.75,5.51-.92,8.03Z"/>
  <path class="cls-40" d="M224.05,43.01c2.46,1.1,3.59,2.7,1.34,4.94-2.95,2.95-3.25,7.8-7.28,9.93-2.36-2.65-3.89-6.03-7.03-8,.36-4.77,3.78-8.02,5.93-11.9.73,1.06,1.85.97,2.92,1.01,1.92.74,3.01,2.35,4.13,3.92l-.02.1Z"/>
  <path class="cls-128" d="M186.9,42.88c-.89-.08-2.52-.08-2.54-.26-.15-1.23.93-.54,1.49-.65.39-.08.85.17,1.28.27-.07.21-.15.43-.22.64Z"/>
  <path class="cls-146" d="M224.07,42.9c-1.74-.93-3.04-2.31-4.13-3.92,3.01-.41,3.75,1.56,4.13,3.92Z"/>
  <path class="cls-226" d="M233.11,39.94c-1.34,1.53-3.07,2.06-5.05,1.98,1.31-1.61,3.07-2.09,5.05-1.98Z"/>
  <path class="cls-106" d="M262.9,108.84c-1.29,1.12-.77,2.63-.87,4-1.2,1.51.19,3.53-.99,5.04-.57,4.62-3.5,5.5-7.57,5.04-2.43-.27-4.91-.02-7.37,0-9.57-.16-9.63-.2-4.66-8.76,3.13-5.39,6.47-10.65,9.77-15.94.93-1.49,1.59-3.4,3.88-3.37.63.02,1.26.04,1.89.07,6.82,2.08,8.42,6.58,6.01,12.95-.11.29-.07.65-.09.97Z"/>
  <path class="cls-92" d="M196.08,146.86c.56-1.33,1.56-1.99,3-2-.1,2.02-1.55,2.01-3,2Z"/>
  <path class="cls-72" d="M166.09,152.86c0-.32,0-.64.02-.96,1.94,0,3.88,0,5.81,0,.01.32.02.64.03.96h-5.87Z"/>
  <path class="cls-53" d="M136.43,137.67c-.12.69-.24,1.37-.35,2.06-1.88-.39-4.96,1.87-5.33-1.38-.17-1.49.02-5.85,4.36-4.4,1.39.94-.65,3,1.24,3.78l.09-.06Z"/>
  <path class="cls-220" d="M168.16,129.97c.72,1.23,2.02.66,3.03.99-2.85,1.48-5.87,2.17-9.08,2.06-.29-.23-.39-.46-.29-.69.09-.23.19-.35.29-.35,2.02-.67,4.04-1.34,6.06-2.01Z"/>
  <path class="cls-125" d="M187.03,126.79c-1.23.86-2.33,1.95-3.93,2.12-.4-.8-1.12-1.01-1.94-1.02,1.63-.93,3.26-1.86,4.89-2.8.73.33,1.53.62.98,1.69Z"/>
  <path class="cls-11" d="M136.34,137.74c-2.81-.48-1.2-2.4-1.24-3.78,1.84.38,3.69.76,5.54,1.14-1.03,1.8-4.4-.81-4.31,2.64Z"/>
  <path class="cls-61" d="M174.24,133c.29.33.58.66.87.98-1.28,1.08-2.7,1.05-4.26.56.78-1.42,2.1-1.44,3.39-1.54Z"/>
  <path class="cls-186" d="M175.84,123.72c1.34-.96,2.86-1.73,4.22-.42.31.29-.96,1.44-2.04,1.44-.73-.34-1.45-.68-2.18-1.02Z"/>
  <path class="cls-147" d="M162.1,131.98c0,.35,0,.69,0,1.04-.99,1.04-2.1,1.19-3.72.27,1.43-.5,2.57-.91,3.71-1.31Z"/>
  <path class="cls-108" d="M187.03,126.79c-.33-.56-.65-1.13-.98-1.69,1.36-.21,2.39-1.56,3.93-1.19-.3,1.66-1.53,2.37-2.95,2.88Z"/>
  <path class="cls-165" d="M154.09,152.83c-1.32-.34-2.63-.68-3.95-1.02-.03-.32-.04-.63-.05-.95,2.11-.92,3.03.56,4,1.96Z"/>
  <path class="cls-229" d="M261.04,117.88c.17-1.71-.54-3.59.99-5.04-.22,1.7.69,3.62-.99,5.04Z"/>
</svg>