<?xml version="1.0" encoding="UTF-8"?>
<svg id="Layer_1" data-name="Layer 1" xmlns="http://www.w3.org/2000/svg" version="1.1" viewBox="0 0 449 449">
  <defs>
    <style>
      .cls-1 {
        fill: #000;
      }

      .cls-1, .cls-2, .cls-3 {
        stroke-width: 0px;
      }

      .cls-4 {
        stroke-miterlimit: 10;
      }

      .cls-4, .cls-5 {
        stroke: #000;
      }

      .cls-4, .cls-2 {
        fill: #263a9b;
      }

      .cls-5 {
        stroke-linecap: round;
        stroke-linejoin: round;
        stroke-width: 2px;
      }

      .cls-5, .cls-3 {
        fill: #fff;
      }
    </style>
  </defs>
  <path class="cls-1" d="M257.1,373.5c-1.6,0-3.3-.1-4.9,0-3,.3-4.7-1.3-5.7-3.8-1.4-3.4-2.6-6.8-3.8-10.2-.6-1.7-1.5-2.4-3.4-2.4-9,.1-17.9.1-26.9,0-2.2,0-3.1.8-3.8,2.8-1.2,3.4-2.4,6.8-4,10.1-2.1,4.4-4.6,4.6-7.8.9-2-2.3-3.9-4.8-6-7-1.1-1.2-1.2-2.2-.6-3.7,4.5-11.5,9-23.1,13.4-34.7,3.3-8.6,6.4-17.3,9.6-26,1.7-4.7,3.1-5.6,8-5.6,3.7,0,7.4.2,11.1.2,3.2,0,4.9,1.9,6,4.6,3.2,8.2,6.3,16.4,9.5,24.5,5.2,13.1,9.9,24.6,14.2,35,1.3,3.1,3,6.1,4.2,9.2,1.7,4.2.4,6-4,6-1.7,0-3.4,0-5.1,0h0ZM226.1,316.2c-.7,1.1-1.2,1.6-1.4,2.2-2.7,7.1-5.4,14.3-8.1,21.4-.8,2.1-.4,2.6,2,2.6,4.9,0,9.7,0,14.6-.1,2.6,0,3-.7,2.1-3.1-2.5-6.7-5-13.5-7.5-20.1-.3-.8-.9-1.5-1.6-2.8h0Z"/>
  <path class="cls-2" d="M56.3,326.1h10.3c1,0,1.8.8,1.8,1.9v11.4c0,1.1-.9,2-2,2-6,0-11.8,0-17.7,0h0l7.5-15.2h0Z"/>
  <path class="cls-1" d="M73.4,305.4c-.2,2.7-1.1,3.4-3.9,3.4-7.7,0-15.5,0-23.2,0s-3.1,0-3.1,3.2c0,3.4,0,6.8,0,10.2,0,4.4-.6,3.9,4,3.9h5.4l-7.5,15.2c-2.3,0-1.8.3-1.9,3.8,0,7.2,0,14.4,0,21.6,0,4.5-1.3,5.7-5.8,5.7s-6,0-9,0c-2.5,0-3.8-1.4-4-3.9,0-.7,0-1.4,0-2.1,0-22.3,0-44.7,0-67s1.2-6.5,6.2-6.5c12.4-.1,24.7,0,37.1,0,1,0,2.2-.1,3,.3,1.1.6,2.6,1.7,2.7,2.7.4,3.1.3,6.3.2,9.5h0Z"/>
  <path class="cls-1" d="M100.7,332.5v32.2c0,1.2,0,2.5-.2,3.7-.5,2.6-1.8,3.8-4.4,3.9-3.4.1-6.8.1-10.2,0-2,0-3.3-1.1-3.7-3.2-.2-1.1-.3-2.1-.3-3.2,0-22,0-43.9,0-65.9,0-1.1,0-2.2.2-3.2.3-2.7,1.4-3.6,4.1-3.7,3.1,0,6.2-.1,9.3-.1,3.9,0,5.1,1.2,5.1,5.2,0,3.4,0,6.8,0,10.2v24.1h0s0,0,0,0Z"/>
  <path class="cls-1" d="M396.6,332.9v-34.5c0-4.1,1.1-5.2,5.2-5.2s5.6,0,8.4,0c3,0,4.4,1.4,4.5,4.4,0,3.6,0,7.3,0,10.9v58.4c0,4.1-1.4,5.5-5.6,5.6-2.5,0-4.9,0-7.4,0-3.7,0-5-1.3-5-5v-34.5h0Z"/>
  <path class="cls-4" d="M173.1,285.5c-2.1,4-3.8,7.4-5.7,10.7-.9,1.5-.8,2.5.6,3.4,1.8,1.2,3.5,2.5,5.3,3.7,2.4,1.6,2.8,1.4,4.4-1,2.1-3.2,4.3-6.4,6.6-9.8,1.5,8.1-.8,16.5-8.9,18.4-4.1,1-7,3.4-9.6,6.5-2.7,3.2-5.4,6.3-8.3,9.7-1.8-1.7-3.4-3.1-4.9-4.6-.2.2-.5.3-.4.4.6,7.2-3.8,12.3-7.9,17.3-8.1,9.9-16.6,19.5-25,29.2-2.6,3-6.3,3.2-9,.8-2.6-2.3-2.7-5.8.1-8.6,8.4-8.2,16.8-16.5,25.4-24.4,3-2.7,6.8-4.5,9.1-8,.8-1.2,1.8-2.2,2.3-3.5,1.7-4.7,4.8-8.4,8-12,3.4-3.8,5.4-8,4.5-13.3-.6-3.9,1-7.1,3.9-9.7,2.5-2.4,5.4-3.9,9.4-5.1h0,0Z"/>
  <path class="cls-1" d="M108.3,292.9c1.8,2.1,3.3,3.9,4.7,5.7,1.4,1.8,2.7,3.6,4.3,5.8,3.2-2.5,6.4-5,9.7-7.6-2.8-4-5.3-7.7-8-11.6,7.2,0,14.8,6.9,14.7,13.7,0,4.3,1.3,7.8,4.1,10.9,2.4,2.7,4.7,5.5,7.2,8.2.9,1,1.1,1.7.4,2.8-1.8,2.7-3.5,5.4-5.4,8.3-3.8-4.4-7.4-8.3-10.8-12.5-2.6-3.2-5.7-5.3-9.7-6.2-9-2.1-11.3-8.3-11.4-16.2,0-.3.1-.6.3-1.4h0Z"/>
  <path class="cls-1" d="M184.9,372.4c-2.9,0-5.8.1-8.6,0-1,0-2.2-.8-2.9-1.6-6-6.9-11.9-13.8-17.7-20.8-.7-.9-.8-2.8-.3-4,1.5-4.1,3.4-8.1,5.1-12.1,0,0,.2.1.1.1-1.1,3.6,1,5.9,3.2,8.3,6.3,6.7,12.5,13.5,18.7,20.3,2.8,3.1,3.2,5.4,2.5,9.9h0Z"/>
  <path class="cls-2" d="M341.1,304.6h-25.5c.5-1.7,1-3.4,1.6-5.1.3-1,.6-2.1,1-3.1,1-2.1,2.5-3.4,5-3.3,2.9.1,5.9,0,8.8,0,3,0,5.3,1.2,6.3,4.1.9,2.5,1.8,4.9,2.7,7.4h0Z"/>
  <path class="cls-1" d="M390,297.4c-1.8,5.3-3.9,10.6-5.8,15.8-6.5,17.6-12.9,35.2-19.3,52.8-2,5.5-3.2,6.4-9.1,6.4s-2.9,0-4.4,0c-3.9,0-5.5-1-6.8-4.7-1.6-4.6-3.1-9.2-4.6-13.8-3.5-10.7-6.9-21.4-10.4-32-.3-.9-.7-1.8-1.3-3.4-.6,1.4-1.1,2.2-1.4,3.1-4.8,15-9.6,29.9-14.4,44.9-1.7,5.3-2.7,6-8.3,6-1.7,0-3.4-.1-5.1,0-3.2.2-5.2-1.4-6.2-4.2-2.2-5.7-4.1-11.4-6.2-17.1-6.8-18.2-13.6-36.5-20.5-54.7-.4-1-.7-2-1.1-3.3h0c6.1,0,11.9-.1,17.8,0,2,0,3,1.6,3.6,3.5,2,6.1,4,12.1,6,18.2,2.8,8.7,5.5,17.5,8.3,26.2.3,1,1.1,1.8,1.7,2.7.7-.9,1.7-1.7,2-2.7,3.4-11,6.8-22.1,10.1-33.1h27.6c.6,1.6,1.1,3.2,1.6,4.9,3.1,9.5,6.1,19.1,9.2,28.6.3.9,1.1,1.6,1.7,2.5.6-.9,1.5-1.8,1.8-2.8,3.8-12,7.5-24.1,11.2-36.2.8-2.6,1.6-5.3,2.4-8,.9-2.8,2.2-3.7,5.1-3.7,3.8,0,7.6,0,11.4,0,2.9,0,4.2,1.6,3.3,4.3h0Z"/>
  <path class="cls-2" d="M416.4,269.6c0,8.4-10.8,15.7-10.8,15.7,0,0-10.8-7.2-10.8-15.7s1.1-5.6,3.2-7.7,4.8-3.2,7.7-3.2,5.6,1.1,7.7,3.2,3.2,4.8,3.2,7.7h0Z"/>
  <path class="cls-3" d="M342.2,307.8h0c-.3-.8-.6-1.7-.9-2.5l.9,2.5h0Z"/>
  <g>
    <path class="cls-4" d="M283.1,67.5c-4.5,8.5-8.1,15.9-12.3,22.9-2,3.3-1.7,5.3,1.4,7.3,3.9,2.6,7.5,5.4,11.4,7.9,5.2,3.4,6,3.1,9.5-2,4.6-6.8,9.2-13.7,14.2-21,3.2,17.3-1.6,35.4-19,39.5-8.9,2.1-15,7.3-20.5,13.9-5.8,6.8-11.6,13.6-17.8,20.8-3.8-3.6-7.2-6.8-10.6-9.9-.5.4-1,.6-1,.8,1.3,15.5-8.1,26.4-16.8,37-17.4,21.2-35.6,41.9-53.7,62.7-5.6,6.5-13.4,6.9-19.3,1.7-5.5-4.9-5.9-12.4.2-18.4,17.9-17.7,35.9-35.3,54.5-52.4,6.4-5.9,14.6-9.7,19.6-17.3,1.6-2.5,3.9-4.7,4.9-7.4,3.7-10,10.3-18,17.2-25.8,7.3-8.1,11.5-17.2,9.7-28.6-1.4-8.4,2.2-15.2,8.3-20.8,5.4-5,11.6-8.4,20.1-10.9h0,0Z"/>
    <path class="cls-1" d="M144,83.4c3.9,4.6,7.1,8.3,10.2,12.2,2.9,3.8,5.7,7.7,9.2,12.4,6.9-5.4,13.7-10.8,20.8-16.3-6-8.6-11.5-16.6-17.2-24.8,15.4-.2,31.7,14.8,31.4,29.4-.2,9.3,2.8,16.8,8.9,23.4,5.2,5.8,10.2,11.8,15.5,17.5,1.9,2.1,2.3,3.7.7,6.1-3.8,5.7-7.5,11.6-11.6,17.8-8.1-9.4-15.9-17.9-23.2-26.8-5.6-6.8-12.2-11.3-20.8-13.4-19.4-4.6-24.4-17.8-24.5-34.7,0-.6.2-1.2.6-2.9h0Z"/>
    <path class="cls-1" d="M308.3,253.8c-6.3,0-12.4.3-18.5-.2-2.2-.2-4.7-1.8-6.2-3.5-12.9-14.7-25.6-29.6-38-44.7-1.5-1.9-1.6-6.1-.7-8.6,3.3-8.8,7.3-17.3,11-26.1,0,0,.3.2.3.3-2.4,7.7,2.1,12.7,6.8,17.8,13.4,14.4,26.9,28.9,40,43.6,5.9,6.6,6.8,11.5,5.3,21.3h0s0,0,0,0Z"/>
    <g>
      <path class="cls-2" d="M252.7,61.6c0,20.6-26.5,38.3-26.5,38.3,0,0-26.5-17.7-26.5-38.3s2.8-13.8,7.8-18.8c5-5,11.7-7.8,18.8-7.8s13.8,2.8,18.8,7.8c5,5,7.8,11.7,7.8,18.8Z"/>
      <path class="cls-5" d="M226.2,70.4c4.9,0,8.8-4,8.8-8.8s-4-8.8-8.8-8.8-8.8,4-8.8,8.8,4,8.8,8.8,8.8Z"/>
    </g>
    <path class="cls-4" d="M262.7,253.9h-73.1c1.5-4.9,3-9.8,4.5-14.8.9-2.9,1.7-6,3-8.8,2.8-6.1,7.1-9.8,14.5-9.5,8.4.4,16.9.2,25.3,0,8.7-.1,15.1,3.4,18.2,11.7,2.6,7.1,5.1,14.2,7.7,21.3Z"/>
    <path class="cls-2" d="M162.3,182.9c-9.8,0-19.6,0-29.6,0s-5.3-2.4-5.3-5.3v-32.6c0-3.1,2.5-5.6,5.6-5.6,17.2,0,33.9,0,50.7,0h.2l-21.6,43.5h0Z"/>
    <path class="cls-2" d="M289.6,139.4c9.8,0,19.6,0,29.6,0s5.3,2.4,5.3,5.3v32.6c0,3.1-2.5,5.6-5.6,5.6-17.2,0-34,0-50.7,0h-.2l21.6-43.5Z"/>
  </g>
</svg>