<?xml version="1.0" encoding="UTF-8"?>
<svg id="Layer_1" data-name="Layer 1" xmlns="http://www.w3.org/2000/svg" viewBox="0 0 430.75 126.05">
  <defs>
    <style>
      .cls-1 {
        fill: #000;
      }

      .cls-1, .cls-2, .cls-3, .cls-4 {
        stroke-width: 0px;
      }

      .cls-5 {
        stroke-miterlimit: 10;
      }

      .cls-5, .cls-6 {
        stroke: #000;
      }

      .cls-5, .cls-4 {
        fill: #263a9b;
      }

      .cls-6 {
        stroke-linecap: round;
        stroke-linejoin: round;
        stroke-width: 2px;
      }

      .cls-6, .cls-3 {
        fill: #fff;
      }

      .cls-2 {
        fill: #263a9b;
      }
    </style>
  </defs>
  <path class="cls-1" d="M255.7,125.98c-1.78,0-3.58-.13-5.35.03-3.27.29-5.14-1.46-6.25-4.17-1.5-3.68-2.88-7.41-4.18-11.16-.65-1.86-1.62-2.61-3.71-2.59-9.86.11-19.72.11-29.57-.01-2.4-.03-3.45.92-4.2,3.08-1.29,3.75-2.69,7.49-4.42,11.06-2.33,4.83-5.08,5.04-8.61.93-2.21-2.57-4.32-5.24-6.63-7.72-1.22-1.31-1.31-2.47-.68-4.08,4.94-12.68,9.86-25.38,14.69-38.1,3.6-9.48,7.07-19.01,10.59-28.52,1.9-5.13,3.37-6.21,8.83-6.18,4.07.02,8.15.2,12.22.26,3.47.05,5.43,2.07,6.6,5.05,3.51,8.98,6.89,18.02,10.47,26.97,5.76,14.42,10.9,26.99,15.61,38.43,1.41,3.43,3.25,6.69,4.64,10.13,1.85,4.59.46,6.55-4.44,6.6-1.87.02-3.74,0-5.61,0h0ZM221.65,63.03c-.77,1.21-1.28,1.78-1.54,2.45-3,7.84-5.99,15.67-8.89,23.54-.85,2.3-.39,2.83,2.19,2.82,5.35-.02,10.69-.07,16.04-.17,2.83-.05,3.28-.76,2.28-3.45-2.74-7.38-5.48-14.77-8.27-22.13-.34-.9-.98-1.68-1.81-3.07h0Z"/>
  <path class="cls-4" d="M35.2,73.94c3.74,0,7.5,0,11.32,0,1.12,0,2.04.91,2.04,2.03v12.5c0,1.18-.97,2.15-2.15,2.15-6.58,0-13.01-.02-19.43,0h-.06l8.28-16.67Z"/>
  <path class="cls-1" d="M53.98,51.19c-.16,2.94-1.24,3.75-4.27,3.76-8.5.03-16.99,0-25.49,0-3.42,0-3.41.01-3.42,3.51,0,3.74-.03,7.48,0,11.21.03,4.85-.66,4.24,4.39,4.26,1.97.01,3.94.01,5.92.01l-8.28,16.66c-2.48,0-2.02.32-2.04,4.19-.05,7.9,0,15.8-.04,23.7-.03,4.99-1.4,6.31-6.37,6.31-3.31,0-6.63.03-9.94-.02-2.72-.04-4.2-1.51-4.38-4.23-.05-.76-.03-1.53-.03-2.29-.02-24.53-.03-49.09-.03-73.64,0-5.48,1.33-7.1,6.79-7.15,13.59-.13,27.18-.04,40.78-.01,1.1,0,2.39-.14,3.25.37,1.2.7,2.83,1.86,2.97,2.97.42,3.42.38,6.93.19,10.39Z"/>
  <path class="cls-1" d="M83.97,80.99v35.43c0,1.35,0,2.73-.23,4.06-.5,2.88-1.92,4.18-4.82,4.27-3.74.11-7.48.12-11.21.02-2.19-.06-3.66-1.26-4.01-3.51-.19-1.17-.34-2.36-.34-3.54,0-24.13.03-48.26.07-72.39,0-1.19.1-2.38.25-3.55.38-2.93,1.57-4.01,4.48-4.06,3.4-.06,6.8-.16,10.19-.11,4.33.07,5.59,1.36,5.65,5.67.05,3.74.02,7.48.02,11.22v26.51h-.04v-.02Z"/>
  <path class="cls-1" d="M408.94,81.38v-37.95c0-4.49,1.25-5.72,5.71-5.72,3.06,0,6.11-.03,9.17.01,3.28.04,4.83,1.52,4.89,4.83.08,3.99.02,7.98.02,11.97v64.18c0,4.53-1.57,6.09-6.11,6.11-2.72.01-5.43.02-8.15,0-4.08-.04-5.53-1.47-5.54-5.48v-37.95h0Z"/>
  <path class="cls-5" d="M163.47,29.39c-2.3,4.34-4.14,8.13-6.3,11.73-1.02,1.7-.88,2.7.69,3.75,1.98,1.32,3.85,2.79,5.85,4.07,2.69,1.73,3.1,1.58,4.84-1.04,2.34-3.51,4.72-7,7.26-10.76,1.64,8.85-.82,18.14-9.75,20.21-4.55,1.06-7.66,3.76-10.49,7.13-2.95,3.5-5.94,6.96-9.1,10.66-1.94-1.82-3.7-3.46-5.44-5.09-.26.22-.5.33-.49.41.68,7.93-4.15,13.51-8.62,18.96-8.93,10.88-18.24,21.46-27.48,32.1-2.89,3.32-6.88,3.55-9.9.87-2.83-2.51-3.01-6.35.12-9.44,9.18-9.06,18.41-18.09,27.9-26.82,3.27-3.01,7.49-4.97,10.03-8.84.83-1.27,2-2.41,2.51-3.8,1.9-5.13,5.26-9.24,8.83-13.23,3.72-4.17,5.91-8.79,4.96-14.62-.7-4.28,1.14-7.77,4.24-10.66,2.76-2.58,5.95-4.32,10.32-5.59h.02Z"/>
  <path class="cls-1" d="M92.25,37.53c1.97,2.36,3.65,4.27,5.21,6.27,1.51,1.92,2.92,3.93,4.72,6.37,3.54-2.79,7.01-5.52,10.64-8.37-3.05-4.41-5.88-8.5-8.79-12.7,7.88-.08,16.23,7.58,16.09,15.07-.08,4.76,1.43,8.58,4.54,11.99,2.68,2.95,5.21,6.04,7.92,8.97.97,1.05,1.18,1.91.38,3.11-1.96,2.94-3.86,5.93-5.93,9.11-4.17-4.79-8.14-9.15-11.87-13.7-2.86-3.48-6.24-5.8-10.67-6.85-9.91-2.34-12.47-9.11-12.55-17.78,0-.31.12-.62.31-1.49Z"/>
  <path class="cls-1" d="M176.38,124.78c-3.23,0-6.37.16-9.49-.08-1.11-.09-2.41-.9-3.17-1.78-6.58-7.55-13.13-15.14-19.48-22.88-.78-.96-.83-3.12-.35-4.4,1.67-4.51,3.72-8.88,5.64-13.34.02.02.18.11.17.15-1.21,3.95,1.08,6.52,3.49,9.12,6.88,7.4,13.75,14.81,20.5,22.32,3.02,3.37,3.5,5.88,2.7,10.91v-.02Z"/>
  <path class="cls-5" d="M347.99,50.34h-27.99c.57-1.89,1.14-3.77,1.71-5.66.34-1.13.65-2.3,1.15-3.36,1.08-2.32,2.72-3.76,5.54-3.64,3.22.14,6.46.06,9.69.02,3.33-.04,5.8,1.31,6.96,4.49.99,2.71,1.97,5.43,2.94,8.15Z"/>
  <path class="cls-1" d="M401.71,42.46c-1.97,5.85-4.25,11.6-6.38,17.4-7.09,19.31-14.18,38.62-21.24,57.94-2.23,6.1-3.48,7.04-10.04,7.04-1.61,0-3.23.02-4.84,0-4.32-.07-5.99-1.11-7.45-5.17-1.8-5.01-3.4-10.1-5.05-15.16-3.81-11.73-7.58-23.48-11.38-35.21-.33-1.02-.78-2-1.47-3.75-.69,1.57-1.18,2.46-1.49,3.41-5.27,16.42-10.51,32.85-15.77,49.28-1.86,5.8-2.99,6.61-9.12,6.62-1.87,0-3.75-.11-5.61.01-3.51.23-5.67-1.56-6.82-4.6-2.37-6.24-4.53-12.56-6.86-18.81-7.47-20.05-14.97-40.08-22.46-60.12-.41-1.09-.73-2.21-1.19-3.6h.02c6.66-.01,13.09-.12,19.51.05,2.16.06,3.34,1.79,4,3.79,2.19,6.66,4.43,13.31,6.57,19.99,3.06,9.57,6.02,19.18,9.1,28.75.35,1.08,1.25,1.99,1.89,2.98.76-1,1.88-1.88,2.22-3.01,3.74-12.12,7.41-24.26,11.08-36.4h30.29c.62,1.77,1.22,3.56,1.8,5.34,3.42,10.44,6.69,20.94,10.1,31.39.32.99,1.22,1.8,1.85,2.69.67-1.01,1.63-1.93,1.98-3.04,4.16-13.23,8.24-26.49,12.33-39.74.9-2.91,1.71-5.85,2.66-8.73,1.02-3.08,2.43-4.06,5.63-4.07,4.16-.01,8.33-.04,12.49,0,3.16.03,4.65,1.76,3.65,4.73Z"/>
  <path class="cls-2" d="M430.75,11.91c0,9.26-11.91,17.2-11.91,17.2,0,0-11.91-7.94-11.91-17.2,0-3.16,1.25-6.19,3.49-8.42s5.26-3.49,8.42-3.49,6.19,1.25,8.42,3.49c2.23,2.23,3.49,5.26,3.49,8.42Z"/>
  <path class="cls-6" d="M418.85,15.87c2.19,0,3.97-1.78,3.97-3.97s-1.78-3.97-3.97-3.97-3.97,1.78-3.97,3.97,1.78,3.97,3.97,3.97Z"/>
  <path class="cls-3" d="M349.23,53.89h-.01c-.31-.92-.63-1.83-.95-2.75l.96,2.75Z"/>
</svg>