<svg width="460" height="205" viewBox="0 0 460 205" fill="none" xmlns="http://www.w3.org/2000/svg">
<g clip-path="url(#clip0_3_147)">
<path d="M63.3451 164.469C63.3451 159.153 67.652 154.839 72.9682 154.839C78.2844 154.839 82.5982 159.146 82.5982 164.469C82.5982 169.792 78.2913 174.092 72.9682 174.092C67.6451 174.092 63.3451 169.785 63.3451 164.469Z" fill="#1FA0DB"/>
<path d="M93.749 32.7679C93.749 25.2396 89.7601 18.6514 83.7734 15.0083V36.2936L72.9681 41.4922L62.156 36.2936V15.0083C56.1692 18.6514 52.1803 25.2396 52.1803 32.7679C52.1803 40.2962 55.9065 46.4212 61.5546 50.1335V88.3628H85.8197C119.023 88.3628 145.936 115.275 145.936 148.479V153.034C145.936 181.738 122.667 205.007 93.9564 205.007H21.8455C9.78209 205.007 0 195.225 0 183.162V168.637C0 143.868 20.0827 123.785 44.8524 123.785H61.5546V146.052C54.0607 150.698 49.8852 159.671 51.7517 168.803C52.8025 173.905 55.6507 178.461 59.7779 181.641C63.5455 184.392 66.7463 187.835 69.2143 191.782L70.8942 194.582C71.5786 195.723 73.058 196.089 74.1918 195.405C74.5305 195.197 74.8139 194.921 75.0144 194.582L76.6321 191.893C78.789 188.111 81.7202 184.828 85.2459 182.27C95.0833 175.502 97.572 162.035 90.804 152.191C89.6565 150.525 88.2807 149.025 86.7184 147.739V147.753C85.9648 147.138 85.1837 146.578 84.3679 146.08V114.314H60.1028C26.9059 114.308 0 87.3949 0 54.1915V51.9724C0 23.2694 23.2696 0 51.9729 0H124.084C136.154 0 145.936 9.78198 145.936 21.8453V34.4962C145.936 59.2657 125.854 79.3481 101.077 79.3481H84.3748V50.1266C90.0228 46.4143 93.749 40.0197 93.749 32.761V32.7679Z" fill="#1FA0DB"/>
<path d="M214.466 107.533C213.443 106.952 212.275 106.655 211.037 106.586C209.724 106.662 208.555 106.952 207.463 107.533C206.516 108.189 205.714 109.067 205.057 110.09C204.401 111.183 204.034 112.427 204.034 113.665C204.034 114.978 204.401 116.146 205.057 117.239C205.638 118.331 206.447 119.209 207.463 119.866C208.555 120.522 209.724 120.813 211.037 120.813C212.275 120.813 213.443 120.522 214.466 119.866C215.489 119.209 216.291 118.331 216.872 117.239C217.453 116.146 217.75 114.978 217.75 113.665C217.75 112.427 217.46 111.183 216.872 110.09C216.291 109.067 215.482 108.189 214.466 107.533Z" fill="#091121"/>
<path d="M279.726 166.881C278.779 166.225 277.611 165.858 276.297 165.789C275.06 165.865 273.815 166.225 272.723 166.881C271.776 167.393 270.974 168.195 270.317 169.294C269.661 170.386 269.37 171.631 269.37 172.868C269.37 174.182 269.661 175.426 270.317 176.518C270.974 177.61 271.776 178.419 272.723 179C273.815 179.657 275.06 180.023 276.297 180.092C277.611 180.016 278.779 179.581 279.726 179C280.749 178.343 281.551 177.61 282.132 176.518C282.643 175.426 283.01 174.182 283.079 172.868C283.003 171.631 282.643 170.386 282.132 169.294C281.551 168.202 280.742 167.393 279.726 166.881Z" fill="#091121"/>
<path d="M290.746 128.555C290.746 137.535 290.601 142.499 290.379 143.522C289.868 145.714 288.043 146.882 284.904 147.027C284.102 147.103 273.228 147.172 264.828 147.172H235.261V122.5H222.707V150.746C222.707 155.053 221.469 158.268 219.133 160.452C217.086 162.353 214.604 163.37 211.542 163.155C208.549 163.01 205.922 161.987 203.806 160.093C201.469 157.977 200.232 155.42 200.232 152.426V130.159H187.533V150.38C187.533 156.436 189.793 161.621 194.031 165.706C197.826 169.501 202.721 171.693 208.486 172.495C214.252 173.373 219.437 172.64 224.11 170.234C229.219 167.531 232.579 163.446 234.258 157.901H264.842C296.961 157.901 303.314 158.337 303.314 141.621V122.347H290.76V128.555H290.746Z" fill="#091121"/>
<path d="M297.168 166.881C296.221 166.225 295.053 165.858 293.739 165.789C292.502 165.865 291.257 166.225 290.165 166.881C289.218 167.393 288.416 168.195 287.759 169.294C287.102 170.386 286.812 171.631 286.812 172.868C286.812 174.182 287.102 175.426 287.759 176.518C288.416 177.61 289.218 178.419 290.165 179C291.257 179.657 292.502 180.023 293.739 180.092C295.053 180.016 296.221 179.581 297.168 179C298.191 178.343 298.993 177.61 299.574 176.518C300.085 175.426 300.452 174.182 300.521 172.868C300.445 171.631 300.085 170.386 299.574 169.294C298.993 168.202 298.184 167.393 297.168 166.881Z" fill="#091121"/>
<path d="M439.662 122.569C435.064 121.476 430.391 121.836 425.649 123.516C420.761 125.196 416.814 127.968 413.675 131.908C410.246 136.215 408.276 141.255 407.909 147.165H406.741C405.206 146.944 404.335 146.142 404.038 144.76V130.235H391.408V147.172H333.151C326.438 147.172 323.224 143.522 323.224 136.153V90.5334H310.524V134.183C310.524 143.888 312.273 150.387 315.854 153.746C318.702 156.519 323.956 157.908 331.478 157.908H404.038V156.304L404.405 156.74C405.206 157.473 406.52 157.908 408.2 157.908H455.285L455.942 153.892C456.163 152.433 456.308 150.753 456.454 148.928C457.186 141.192 455.652 134.839 451.635 129.876C448.573 126.156 444.556 123.668 439.662 122.575V122.569ZM446.374 147.172H418.196C417.173 147.172 416.959 146.149 417.539 144.034C418.12 141.918 419.289 139.727 420.968 137.535C422.793 135.13 425.351 133.595 428.559 132.862C431.622 132.129 434.691 132.205 437.753 133.152C440.892 134.1 443.229 135.779 444.909 138.116C446.658 140.674 447.169 143.736 446.367 147.165L446.374 147.172Z" fill="#091121"/>
<path d="M195.697 83.4268C199.237 84.9892 203.398 85.7704 208.161 85.7704C212.925 85.7704 217.549 85.0238 221.338 83.5305C225.133 82.0373 228.057 79.9634 230.124 77.295C232.191 74.6334 233.221 71.5709 233.221 68.1144C233.221 64.3744 232.323 61.3534 230.525 59.0376C228.728 56.7217 226.426 54.9796 223.619 53.8113C220.819 52.643 217.515 51.7304 213.726 51.0944L209.627 50.3824C205.666 49.6842 202.631 48.7509 200.529 47.5826C198.428 46.4143 197.37 44.7068 197.37 42.4808C197.37 40.3861 198.338 38.7339 200.28 37.5241C202.223 36.3143 204.809 35.706 208.044 35.706C210.415 35.706 212.468 36.0724 214.217 36.8121C215.959 37.5518 217.294 38.5956 218.213 39.9506C219.133 41.3055 219.596 42.8886 219.596 44.6999C219.596 45.564 219.499 46.4281 219.305 47.2923L230.933 47.2093C231.099 46.041 231.182 44.9073 231.182 43.8219C231.182 40.0266 230.263 36.7014 228.424 33.8463C226.585 30.9843 223.958 28.786 220.557 27.2375C217.155 25.6889 213.153 24.9147 208.549 24.9147C203.944 24.9147 199.886 25.6475 196.374 27.113C192.863 28.5786 190.139 30.6456 188.217 33.3279C186.295 36.0032 185.327 39.0865 185.327 42.5706C185.327 46.0548 186.067 49.0758 187.546 51.4608C189.026 53.8458 191.286 55.7608 194.321 57.2125C197.363 58.6642 201.324 59.7911 206.205 60.5999L210.304 61.2705C213.789 61.8304 216.478 62.6323 218.358 63.6762C220.239 64.7201 221.179 66.2341 221.179 68.2181C221.179 69.5869 220.674 70.7759 219.672 71.7922C218.669 72.8084 217.252 73.5965 215.427 74.1564C213.602 74.7164 211.487 74.9929 209.088 74.9929C206.495 74.9929 204.255 74.6473 202.375 73.949C200.495 73.2508 199.05 72.2553 198.047 70.9557C197.045 69.656 196.54 68.1351 196.54 66.3723C196.54 65.5911 196.637 64.8238 196.831 64.0703H184.781C184.671 64.8791 184.615 65.7985 184.615 66.8286C184.615 70.6238 185.576 73.949 187.498 76.8041C189.42 79.6661 192.157 81.8714 195.697 83.4338V83.4268Z" fill="#091121"/>
<path d="M255.392 72.4696H277.86L282.001 84.9339H295.053L273.463 25.7373H259.782L238.234 84.9339H251.286L255.385 72.4696H255.392ZM266.481 37.8283H266.812L274.928 62.6807H258.316L266.474 37.8283H266.481Z" fill="#091121"/>
<path d="M310.904 84.9339H322.954V64.4781L342.954 25.7373H329.895L324.164 38.4573L317.099 54.7307H316.801L309.695 38.4573L304.005 25.7373H290.905L310.904 64.4781V84.9339Z" fill="#091121"/>
<path d="M367.461 84.9339H379.51V64.4781L399.51 25.7373H386.458L380.727 38.4573L373.655 54.7307H373.365L366.251 38.4573L360.561 25.7373H347.468L367.461 64.4781V84.9339Z" fill="#091121"/>
<path d="M447.95 25.7373V65.3976H447.743L441.01 55.4842L420.049 25.7373H408.456V84.9339H420.505V45.2321H420.761L427.999 55.899L448.116 84.9339H460V25.7373H447.95Z" fill="#091121"/>
</g>
<defs>
<clipPath id="clip0_3_147">
<rect width="460" height="205" fill="white"/>
</clipPath>
</defs>
</svg>
