<svg width="146" height="205" viewBox="0 0 146 205" fill="none" xmlns="http://www.w3.org/2000/svg">
<path d="M63.3451 164.469C63.3451 159.153 67.652 154.839 72.9682 154.839C78.2844 154.839 82.5982 159.146 82.5982 164.469C82.5982 169.792 78.2913 174.092 72.9682 174.092C67.6451 174.092 63.3451 169.785 63.3451 164.469Z" fill="#1FA0DB"/>
<path d="M93.749 32.7679C93.749 25.2396 89.7601 18.6514 83.7734 15.0083V36.2936L72.9681 41.4922L62.156 36.2936V15.0083C56.1692 18.6514 52.1803 25.2396 52.1803 32.7679C52.1803 40.2962 55.9065 46.4212 61.5546 50.1335V88.3628H85.8197C119.023 88.3628 145.936 115.275 145.936 148.479V153.034C145.936 181.738 122.667 205.007 93.9564 205.007H21.8455C9.78209 205.007 0 195.225 0 183.162V168.637C0 143.868 20.0827 123.785 44.8524 123.785H61.5546V146.052C54.0607 150.698 49.8852 159.671 51.7517 168.803C52.8025 173.905 55.6507 178.461 59.7779 181.641C63.5455 184.392 66.7463 187.835 69.2143 191.782L70.8942 194.582C71.5786 195.723 73.058 196.089 74.1918 195.405C74.5305 195.197 74.8139 194.921 75.0144 194.582L76.6321 191.893C78.789 188.111 81.7202 184.828 85.2459 182.27C95.0833 175.502 97.572 162.035 90.804 152.191C89.6565 150.525 88.2807 149.025 86.7184 147.739V147.753C85.9648 147.138 85.1837 146.578 84.3679 146.08V114.314H60.1028C26.9059 114.308 0 87.3949 0 54.1915V51.9724C0 23.2694 23.2696 0 51.9729 0H124.084C136.154 0 145.936 9.78198 145.936 21.8453V34.4962C145.936 59.2657 125.854 79.3481 101.077 79.3481H84.3748V50.1266C90.0228 46.4143 93.749 40.0197 93.749 32.761V32.7679Z" fill="#1FA0DB"/>
</svg>
